<svg xmlns="http://www.w3.org/2000/svg" width="48.773" height="41.495" viewBox="0 0 48.773 41.495">
  <g id="Group_8116" data-name="Group 8116" transform="translate(-1072.092 -493.442)">
    <rect id="Rectangle_3870" data-name="Rectangle 3870" width="47.273" height="4.079" rx="2.04" transform="translate(1072.842 494.193)" fill="none" stroke="#0e130d" stroke-linecap="round" stroke-width="1.5"/>
    <path id="Rectangle_3871" data-name="Rectangle 3871" d="M0,0H42.451a0,0,0,0,1,0,0V34.532a1.383,1.383,0,0,1-1.383,1.383H1.383A1.383,1.383,0,0,1,0,34.532V0A0,0,0,0,1,0,0Z" transform="translate(1075.253 498.272)" fill="none" stroke="#0e130d" stroke-linecap="round" stroke-width="1.5"/>
    <path id="Path_1884" data-name="Path 1884" d="M1080.714,501.586V505.8a2.33,2.33,0,0,1-2.375,2.283h-.555a2.331,2.331,0,0,1-2.376-2.283v-4.216" transform="translate(-0.154 -0.445)" fill="none" stroke="#0e130d" stroke-linecap="round" stroke-width="1.5"/>
    <path id="Path_1885" data-name="Path 1885" d="M1086.359,501.586V505.8a2.33,2.33,0,0,1-2.375,2.283h-.555a2.331,2.331,0,0,1-2.376-2.283v-4.216" transform="translate(-0.494 -0.445)" fill="none" stroke="#0e130d" stroke-linecap="round" stroke-width="1.5"/>
    <path id="Path_1886" data-name="Path 1886" d="M1092.005,501.586V505.8a2.331,2.331,0,0,1-2.376,2.283h-.554a2.331,2.331,0,0,1-2.376-2.283v-4.216" transform="translate(-0.833 -0.445)" fill="none" stroke="#0e130d" stroke-linecap="round" stroke-width="1.5"/>
    <path id="Path_1887" data-name="Path 1887" d="M1097.652,501.586V505.8a2.331,2.331,0,0,1-2.376,2.283h-.555a2.331,2.331,0,0,1-2.376-2.283v-4.216" transform="translate(-1.173 -0.445)" fill="none" stroke="#0e130d" stroke-linecap="round" stroke-width="1.5"/>
    <path id="Path_1888" data-name="Path 1888" d="M1103.3,501.586V505.8a2.331,2.331,0,0,1-2.376,2.283h-.554a2.331,2.331,0,0,1-2.376-2.283v-4.216" transform="translate(-1.512 -0.445)" fill="none" stroke="#0e130d" stroke-linecap="round" stroke-width="1.5"/>
    <path id="Path_1889" data-name="Path 1889" d="M1108.943,501.586V505.8a2.331,2.331,0,0,1-2.376,2.283h-.556a2.33,2.33,0,0,1-2.375-2.283v-4.216" transform="translate(-1.852 -0.445)" fill="none" stroke="#0e130d" stroke-linecap="round" stroke-width="1.5"/>
    <path id="Path_1890" data-name="Path 1890" d="M1114.589,501.586V505.8a2.331,2.331,0,0,1-2.376,2.283h-.556a2.33,2.33,0,0,1-2.375-2.283v-4.216" transform="translate(-2.191 -0.445)" fill="none" stroke="#0e130d" stroke-linecap="round" stroke-width="1.5"/>
    <path id="Path_1891" data-name="Path 1891" d="M1120.235,501.586V505.8a2.33,2.33,0,0,1-2.375,2.283h-.555a2.33,2.33,0,0,1-2.375-2.283v-4.216" transform="translate(-2.531 -0.445)" fill="none" stroke="#0e130d" stroke-linecap="round" stroke-width="1.5"/>
    <path id="Rectangle_3872" data-name="Rectangle 3872" d="M1.064,0h8.991a1.064,1.064,0,0,1,1.064,1.064V21.2a0,0,0,0,1,0,0H0a0,0,0,0,1,0,0V1.064A1.064,1.064,0,0,1,1.064,0Z" transform="translate(1079.413 512.99)" fill="none" stroke="#0e130d" stroke-linecap="round" stroke-width="1.5"/>
    <rect id="Rectangle_3873" data-name="Rectangle 3873" width="17.837" height="11.758" rx="1.064" transform="translate(1095.01 512.99)" fill="none" stroke="#0e130d" stroke-linecap="round" stroke-width="1.5"/>
    <line id="Line_224" data-name="Line 224" x1="2.8" y2="3.12" transform="translate(1099.132 516.23)" fill="none" stroke="#0e130d" stroke-linecap="round" stroke-width="1.5"/>
    <line id="Line_225" data-name="Line 225" x1="2.8" y2="3.12" transform="translate(1105.691 518.067)" fill="none" stroke="#0e130d" stroke-linecap="round" stroke-width="1.5"/>
  </g>
</svg>
