<svg xmlns="http://www.w3.org/2000/svg" width="170" height="170" viewBox="0 0 170 170">
  <g id="Group_6137" data-name="Group 6137" transform="translate(0 0.312)">
    <circle id="Ellipse_698" data-name="Ellipse 698" cx="85" cy="85" r="85" transform="translate(0 -0.312)" fill="#7dc242"/>
    <g id="Group_6134" data-name="Group 6134" transform="translate(36.257 38.596)">
      <path id="Path_828" data-name="Path 828" d="M617.424,453.767c-.159-.307-.311-.618-.448-.936C617.113,453.149,617.265,453.46,617.424,453.767Z" transform="translate(-584.966 -381.199)" fill="#fff"/>
      <path id="Path_829" data-name="Path 829" d="M767.434,167.717a4.1,4.1,0,0,1-.524-.173H748.5a2.274,2.274,0,0,0-1.1,2.231c.048,1.263,0,2.529.014,3.794.01,1.381.441,1.794,1.765,2.153,1.359.368,2.68.883,4,1.369a1.1,1.1,0,0,1,.707,1.277,9.275,9.275,0,0,1-2.081,5.389c-.576.709-1.187,1.39-1.846,2.157l1.594,2.389a12.835,12.835,0,0,0,5.158-7.09c.153.377.255.594.331.82.5,1.49.765,1.685,2.312,1.69.845,0,1.69,0,2.826,0a52.951,52.951,0,0,1-.66,6.085c-.568,2.55-1.463,5.028-2.216,7.536-.558,1.86-1.115,3.721-1.685,5.626l3.087.91c.134-.426.23-.723.32-1.022,1.192-3.959,2.376-7.92,3.586-11.874.087-.284.352-.729.543-.733,2.265-.051,4.532-.033,6.824-.033.663,3.649,1.322,7.186,1.945,10.729a38.564,38.564,0,0,1,.969,6.259c.093,11.982.049,23.966.043,35.95,0,3.4-1.965,5.355-5.354,5.368-1.19,0-2.38,0-3.574,0v3.33a44.924,44.924,0,0,0,5.832-.341c3.893-.725,6.338-4.084,6.341-8.394q.013-17.975,0-35.95a9.1,9.1,0,0,0-.115-1.6c-.9-5-1.787-10.01-2.752-15a30.067,30.067,0,0,1-.32-6.842c.882,0,1.671-.048,2.451.012a2.418,2.418,0,0,0,2.367-1.008v-2.277c-.159-.669-.284-1.347-.482-2A14.4,14.4,0,0,0,767.434,167.717Zm4.218,19.181h-6.375v-3.111h6.375Zm3.788-6.416c-4.868,0-9.735-.015-14.6.017a1.163,1.163,0,0,1-1.244-.827,11.942,11.942,0,0,0-7.511-6.621c-1.531-.489-1.536-.473-1.354-2.227.229-.018.413-.045.6-.045,4.678,0,9.357-.043,14.034.013a11.3,11.3,0,0,1,10.949,8.924c.046.212.059.432.1.766Z" transform="translate(-682.641 -167.545)" fill="#fff"/>
      <path id="Path_830" data-name="Path 830" d="M502.433,169.767c.052,1.516.04,3.036-.006,4.552a1.51,1.51,0,0,1-.415,1.063,6.675,6.675,0,0,0-2.836,6.908,1.582,1.582,0,0,1-.554,1.164c-1.887,1.635-3.85,3.183-5.734,4.821a9.011,9.011,0,0,0-3.125,9.2,23.243,23.243,0,0,0,1.542,4.767,10.556,10.556,0,0,1,.208,8.456,28.851,28.851,0,0,0-2.021,10.072c.053,7.493.011,14.987.018,22.48a8.124,8.124,0,0,0,8.442,8.513c3.352.019,6.7,0,10.055,0,.276,0,.551-.033.839-.051v-3.186c-3.651,0-7.221.008-10.79,0a4.919,4.919,0,0,1-5.313-5.327c0-7.462-.014-14.924.013-22.386a14.766,14.766,0,0,1,.318-3.481c.807-3.245,1.725-6.462,2.642-9.678a3.884,3.884,0,0,0-.044-2.486c-.9-2.56-1.743-5.141-2.574-7.724a5.98,5.98,0,0,1,1.936-6.741c1.935-1.629,3.871-3.256,5.839-4.843a2.187,2.187,0,0,1,1.256-.467q6.829-.049,13.659,0a2.225,2.225,0,0,1,1.251.482c1.382,1.086,2.717,2.231,4.115,3.391l2.065-2.475c-1.35-1.13-2.59-2.205-3.875-3.225a1.424,1.424,0,0,1-.674-1.434,6.372,6.372,0,0,0-2.708-6.663,1.744,1.744,0,0,1-.513-1.216c-.061-1.483-.057-2.972-.013-4.457a2.331,2.331,0,0,0-1.067-2.248H503.551A2.271,2.271,0,0,0,502.433,169.767Zm3.311,1.09h6.349v3.109h-6.349Zm-1.06,6.516a1.752,1.752,0,0,1,.816-.122c2.274-.009,4.548-.038,6.82.022a3.416,3.416,0,0,1,1.386.576c.239.131.382.43.614.584,1.392.929,1.19,2.27,1.008,3.66H502.563A4.074,4.074,0,0,1,504.685,177.374Z" transform="translate(-489.492 -167.545)" fill="#fff"/>
      <path id="Path_831" data-name="Path 831" d="M633.733,258.961a40.394,40.394,0,0,0-11.821-26.794c-3.1-3.129-6.744-5.712-10.109-8.58a1.916,1.916,0,0,1-.609-1.233c-.072-1.578-.014-3.161-.035-4.742a1.61,1.61,0,0,0-1.751-1.793c-.462-.025-.926,0-1.479,0,0-2.083,0-4.036,0-5.99-.006-2.487-1.244-3.726-3.735-3.728-3.921,0-7.844.069-11.763-.029-2.141-.053-4.091,1.165-3.925,3.969.111,1.883.021,3.778.021,5.776-.474,0-.845-.006-1.216,0-1.471.029-2.008.559-2.019,2.009-.009,1.3-.084,2.6.022,3.888a3.59,3.59,0,0,1-1.088,2.865,55.865,55.865,0,0,0-5.3,68.044,1.979,1.979,0,0,0,1.835.938q19.068-.015,38.135,0a2.251,2.251,0,0,0,1.935-.968c.9-1.18,1.837-2.336,2.783-3.482C630.847,280.353,634.41,270.346,633.733,258.961Zm-41.918-49.582h12.8v6.37h-12.8Zm29.8,77.042c-.893,1.108-1.751,2.245-2.682,3.319a1.643,1.643,0,0,1-1.074.553q-17.932.043-35.864,0a1.336,1.336,0,0,1-.985-.489,50.776,50.776,0,0,1-7.641-22c-1.577-15.6,2.923-29.289,13.265-41.031a6.315,6.315,0,0,0,1.911-5.259,19.334,19.334,0,0,1-.016-2.405H607.88v3.166H591.821v3.274H592.9c5.092,0,10.184-.006,15.275.011a1.952,1.952,0,0,1,1.151.261c3.515,2.887,7.259,5.554,10.437,8.778a37.056,37.056,0,0,1,10.749,24.64A38.558,38.558,0,0,1,621.611,286.421Z" transform="translate(-549.632 -196.393)" fill="#fff"/>
      <path id="Path_832" data-name="Path 832" d="M526.455,361.442l1.086-3.039c-3.3-1.174-6.469-2.315-9.65-3.432-1.7-.6-2.616.068-2.617,1.888,0,6.194-.035,12.387.008,18.581.043,6.1,4.98,9.41,11.287,8.249v-3.072c-.937,0-1.816,0-2.7,0-3.369,0-5.362-1.99-5.365-5.359q-.007-7.821,0-15.642v-.986Z" transform="translate(-508.79 -307.751)" fill="#fff"/>
      <path id="Path_833" data-name="Path 833" d="M545.128,253.459c-3.815-2.779-10.621-2.75-14.413.06-3.313,2.455-3.307,6.277.036,8.712a13.4,13.4,0,0,0,14.4.008C548.521,259.786,548.5,255.914,545.128,253.459Zm-1.923,6.207a9.305,9.305,0,0,1-5.4,1.437,8.9,8.9,0,0,1-5.179-1.508c-1.505-1.1-1.509-2.329-.037-3.442,2.654-2.006,7.992-2.035,10.663-.058C544.808,257.248,544.808,258.563,543.2,259.666Z" transform="translate(-518.508 -230.34)" fill="#fff"/>
      <path id="Path_834" data-name="Path 834" d="M631.963,374.943a44.74,44.74,0,0,0-10.131-18.725c-1.229-1.326-2.512-2.179-4.373-1.859-.693.05-1.392.06-2.079.157a18.616,18.616,0,1,0,17.72,29.017,2.89,2.89,0,0,0,.362-1.946C633.048,379.356,632.578,377.127,631.963,374.943Zm-2.135,7.6a16.882,16.882,0,0,1-1.8,1.907,15.351,15.351,0,0,1-9.953,3.926,15.194,15.194,0,0,1-11.227-4.626l-.013-.013q-.461-.468-.882-.973-.142-.171-.279-.345-.293-.372-.563-.762-.341-.493-.643-1.011-.193-.331-.369-.671c-.159-.307-.31-.618-.448-.936a14.284,14.284,0,0,1-1.089-4.088,15.343,15.343,0,0,1,13-17.188l.093-.018a4.406,4.406,0,0,1,4.712,1.628,44.651,44.651,0,0,1,8.783,17.559c.384,1.464.7,2.949.967,4.439A1.632,1.632,0,0,1,629.828,382.54Z" transform="translate(-571.647 -307.402)" fill="#fff"/>
      <path id="Path_835" data-name="Path 835" d="M735.162,340.811a5.193,5.193,0,1,0-7.9,6.743,23.773,23.773,0,0,1,4.5,21.6,5.182,5.182,0,0,0-.16,1.872,4.788,4.788,0,0,0,9.3,1.024,35.169,35.169,0,0,0,1.979-10.61c-.25-2.066-.386-4.154-.771-6.194A31.18,31.18,0,0,0,735.162,340.811Zm2.816,29.752a1.636,1.636,0,0,1-2.339,1.178c-.752-.385-.84-1.02-.662-2.241a51.674,51.674,0,0,0,.853-7.5,25.9,25.9,0,0,0-5.605-15.883c-.172-.227-.352-.447-.516-.679a1.966,1.966,0,1,1,3.095-2.409,28.791,28.791,0,0,1,6.689,18.682A27.963,27.963,0,0,1,737.978,370.563Z" transform="translate(-666.598 -295.877)" fill="#fff"/>
    </g>
  </g>
</svg>
