<svg id="Group_8042" data-name="Group 8042" xmlns="http://www.w3.org/2000/svg" width="74.438" height="70.824" viewBox="0 0 74.438 70.824">
  <circle id="Ellipse_709" data-name="Ellipse 709" cx="34.328" cy="34.328" r="34.328" transform="translate(5.782 2.168)" fill="#7dc242"/>
  <g id="Group_5739" data-name="Group 5739">
    <g id="Group_5642" data-name="Group 5642">
      <path id="Path_696" data-name="Path 696" d="M282.069,91.352q28.135-.022,56.27-.012c1.377,0,1.847-.482,1.848-1.879,0-.761.015-1.523,0-2.284a2.761,2.761,0,0,0-2.793-2.785c-.445-.012-.89,0-1.408,0v-.678q0-11.535-.01-23.07c0-.462.105-.673.581-.8a5.007,5.007,0,0,0,3.6-4.976c.022-.976.024-1.952-.007-2.927a2.376,2.376,0,0,0-.246-.944c-1.149-2.323-2.326-4.633-3.473-6.958a2.487,2.487,0,0,1-.236-1c-.03-1.033-.008-2.068-.011-3.1,0-1.6-.69-2.3-2.271-2.3q-19.586,0-39.172,0a3.786,3.786,0,0,0-.526.024.8.8,0,0,0-.737.78.771.771,0,0,0,.615.873,3.693,3.693,0,0,0,.869.076q19.322,0,38.645,0c.819,0,.819,0,.819.822v2.629H285.992c0-1.054-.015-2.1.022-3.147,0-.107.318-.287.491-.291,1.092-.027,2.186-.011,3.279-.016a3.057,3.057,0,0,0,.637-.058.847.847,0,0,0-.117-1.675c-.682-.03-1.366-.019-2.049-.021-.664,0-1.327-.01-1.991,0a1.882,1.882,0,0,0-2.028,2.006c-.027,1.112.015,2.226-.019,3.337a2.749,2.749,0,0,1-.261,1.109c-1.23,2.474-2.489,4.934-3.739,7.4v3.748a13.6,13.6,0,0,0,.528,1.894,4.756,4.756,0,0,0,3.217,2.755c.3.084.469.16.468.526q-.017,11.856-.011,23.712c0,.057-.016.114-.04.281-1.861-.193-3.509.125-4.162,2.223v3.631A1.758,1.758,0,0,0,282.069,91.352ZM338.2,55.983a3.11,3.11,0,0,1-3.583,2.3,3.22,3.22,0,0,1-2.743-3.039c-.036-.872-.006-1.747-.006-2.657h6.606A23.443,23.443,0,0,1,338.2,55.983Zm-4.784-11.351a1.7,1.7,0,0,1,1.965,1.2c.716,1.654,1.592,3.239,2.433,4.917-.187.019-.31.041-.434.041-1.772,0-3.545,0-5.317,0-.286,0-.5-.007-.62-.353-.638-1.836-1.3-3.663-1.957-5.494a2.587,2.587,0,0,1-.06-.288C330.774,44.657,332.1,44.736,333.412,44.632Zm-9.406.025c1.032,0,2.065-.012,3.1.013a.627.627,0,0,1,.488.263c.711,1.91,1.392,3.831,2.111,5.836h-6.339l-1.317-6.112Zm6.128,7.921a27.317,27.317,0,0,1-.169,3.222,3.156,3.156,0,0,1-3.458,2.493,3.206,3.206,0,0,1-2.937-2.975c-.046-.893-.008-1.79-.008-2.739Zm-9.879-7.88,1.3,6.057h-6.388l-.434-6.057Zm1.593,7.877a24.492,24.492,0,0,1-.236,3.367,3.1,3.1,0,0,1-3.33,2.357,3.157,3.157,0,0,1-2.983-2.731,26.552,26.552,0,0,1-.021-2.992Zm-14.52-6.446c.008-.116.026-.233.035-.349.091-1.123.091-1.124,1.252-1.124h4.354c.147,2.065.289,4.058.434,6.094h-6.4C307.114,49.19,307.22,47.659,307.328,46.129Zm-.318,6.433h6.453a11.24,11.24,0,0,1-.23,3.7,3.216,3.216,0,0,1-3.406,2.029,3.093,3.093,0,0,1-2.791-2.585A24.367,24.367,0,0,1,307.009,52.563Zm3.194,7.507a5.013,5.013,0,0,0,4.144-2.15,5.064,5.064,0,0,0,4.145,2.151,5,5,0,0,0,4.153-2.145,5.111,5.111,0,0,0,8.251.133c.7.513,1.4,1.024,2.1,1.529a1.334,1.334,0,0,0,.316.151c.915.346.915.345.915,1.3v23.32H301.172V83.69q0-9.194,0-18.388c0-1.5-.59-2.084-2.1-2.084q-4.656,0-9.311,0c-1.425,0-2.034.609-2.035,2.03q0,9.194,0,18.388v.719h-1.521c-.01-.172-.027-.357-.027-.541q0-11.624-.01-23.249c0-.418.1-.618.532-.724a4.818,4.818,0,0,0,2.719-1.934,5.1,5.1,0,0,0,4.142,2.163,5.005,5.005,0,0,0,4.158-2.126,5.135,5.135,0,0,0,8.334-.013A5.034,5.034,0,0,0,310.2,60.069ZM299.382,65.01V84.355h-9.861V65.01ZM290.37,52.578h6.422a20.851,20.851,0,0,1-.029,3.141,3.231,3.231,0,0,1-6.376-.265C290.295,54.514,290.37,53.558,290.37,52.578Zm9.778-7.88h5.517c-.143,2.02-.286,4.029-.43,6.062h-6.389C299.282,48.73,299.711,46.732,300.148,44.7ZM298.7,52.581h6.442c0,.991.073,1.951-.016,2.894a3.2,3.2,0,0,1-3.139,2.834,3.142,3.142,0,0,1-3.263-2.672A25.009,25.009,0,0,1,298.7,52.581Zm-5.459-7.9c1.616-.031,3.233-.018,4.85-.014a1.33,1.33,0,0,1,.255.06c-.433,2.011-.862,4-1.3,6.029h-6.286a3.754,3.754,0,0,1,.094-.383c.627-1.758,1.249-3.518,1.9-5.266A.725.725,0,0,1,293.238,44.677ZM282.8,50.338c.88-1.756,1.759-3.512,2.653-5.261.085-.166.272-.4.416-.4,1.691-.028,3.382-.018,5.161-.018-.722,2.013-1.4,3.916-2.1,5.811a.548.548,0,0,1-.394.3c-1.946.02-3.892.013-5.908.013C282.7,50.605,282.734,50.466,282.8,50.338Zm1.619,7.849a3.029,3.029,0,0,1-2.324-2.7,28.292,28.292,0,0,1-.019-2.919h6.479c-.106,1.562.4,3.19-.761,4.582A3.248,3.248,0,0,1,284.416,58.187Zm-2.388,28.767a.889.889,0,0,1,.886-.794,6.067,6.067,0,0,1,.643-.014h53.291c1.32,0,1.582.26,1.583,1.566v1.857H282.01C282.01,88.688,281.967,87.817,282.028,86.954Z" transform="translate(-280.217 -37.629)" fill="#0e130d"/>
      <path id="Path_697" data-name="Path 697" d="M323.3,87.967q-.01,6.733,0,13.466c0,1.332.606,1.927,1.934,1.928q12.469,0,24.94,0c1.362,0,1.971-.6,1.972-1.958q.005-6.7,0-13.406a1.722,1.722,0,0,0-1.974-1.972q-5.005-.006-10.011,0a2.321,2.321,0,0,0-.691.086.771.771,0,0,0-.557.858.792.792,0,0,0,.669.777,3.009,3.009,0,0,0,.641.032q4.742,0,9.484,0h.632v13.775H325.085V87.78h10.007c.195,0,.391.006.585-.013a.858.858,0,0,0,.1-1.7,2.43,2.43,0,0,0-.523-.041q-5.005,0-10.011,0A1.7,1.7,0,0,0,323.3,87.967Z" transform="translate(-300.519 -60.434)" fill="#0e130d"/>
      <path id="Path_698" data-name="Path 698" d="M311.233,107.321a.823.823,0,0,0,.845-.807,7.559,7.559,0,0,0,0-.818,7.924,7.924,0,0,0-.006-.876.823.823,0,0,0-.852-.8.8.8,0,0,0-.865.78,11.446,11.446,0,0,0,0,1.751A.8.8,0,0,0,311.233,107.321Z" transform="translate(-294.406 -68.916)" fill="#0e130d"/>
      <path id="Path_699" data-name="Path 699" d="M313.642,106.409a7.544,7.544,0,0,1,0,.818,7.686,7.686,0,0,0,0-.818,8.053,8.053,0,0,0-.006-.876A7.917,7.917,0,0,1,313.642,106.409Z" transform="translate(-295.966 -69.629)" fill="#0e130d"/>
    </g>
  </g>
</svg>
