<svg xmlns="http://www.w3.org/2000/svg" width="170" height="170" viewBox="0 0 170 170">
  <g id="Group_6136" data-name="Group 6136" transform="translate(0.307)">
    <circle id="Ellipse_697" data-name="Ellipse 697" cx="85" cy="85" r="85" transform="translate(-0.307 0)" fill="#7dc242"/>
    <g id="Group_6135" data-name="Group 6135" transform="translate(33.922 34.692)">
      <path id="Path_836" data-name="Path 836" d="M188.383,243.16c-1.475-8.572-1.5-17.238-1.7-25.9q-.539-23.9-1.12-47.8a2.363,2.363,0,0,0-.966-1.925H122.731a7.883,7.883,0,0,0-1.046,1.807c-.963,3.63-1.847,7.282-2.751,10.928-.361,1.458-.2,1.8,1.209,2.549q-.961,13.534-1.934,27.226h-1.123q-8.347,0-16.695,0c-2.182,0-3.106.7-3.686,2.776q-1.755,6.293-3.512,12.586c-.681,2.445.291,3.974,2.911,4.444l1.247,13.6c-.519,0-.977-.015-1.432,0a2.987,2.987,0,0,0-2.971,2.967q-.044,7.636,0,15.272a3.006,3.006,0,0,0,3.03,3.009c.284.01.569,0,.854,0q44.678,0,89.355.025c1.862,0,3.169-.583,3.915-2.3v-16.7c-.483-.6-.983-1.194-1.439-1.817A1.832,1.832,0,0,1,188.383,243.16Zm-5.549-61.03c.34,14.544.735,29.087.988,43.632a144.3,144.3,0,0,0,1.449,17.085c.021.155.033.312.059.568h-8.677c.258-2.138.567-4.223.752-6.318.4-4.564.8-9.129,1.1-13.7.532-8.235.989-16.475,1.47-24.714q.432-7.386.837-14.774c.035-.659.071-1.146.862-1.42.439-.152.707-.8,1.091-1.27C182.787,181.492,182.827,181.811,182.834,182.131Zm-24.565-11.51h23.794l-2.241,9.021H158.269Zm-12.139.032h8.986v12.675c-1.253-1.105-2.334-.425-3.358.2a1.815,1.815,0,0,1-2.236-.013c-.176-.128-.4-.182-.589-.3a2.138,2.138,0,0,0-2.8.155ZM123.2,182.727h16.056a7.651,7.651,0,0,0,.853-.014,1.51,1.51,0,0,0,1.4-1.517,1.486,1.486,0,0,0-1.43-1.487c-.661-.047-1.327-.017-1.991-.017H122.216l2.259-9.07h18.562v1q0,6.783,0,13.566c0,1.916,1.034,2.638,2.653,1.663a3.051,3.051,0,0,1,3.779.021,1.937,1.937,0,0,0,2.309.023,4.734,4.734,0,0,1,1.274-.615,2.48,2.48,0,0,1,1.282.024,17.409,17.409,0,0,1,1.621.774,1.509,1.509,0,0,0,2.256-1.394c.026-.473.007-.948.007-1.423s0-.94,0-1.48h19.62c-.1,1.975-.192,3.894-.306,5.812-.669,11.266-1.395,22.529-2,33.8a204.464,204.464,0,0,1-2,21h-33.38l1.224-13.5c.331-.082.661-.147.982-.245a2.943,2.943,0,0,0,2.083-3.627q-1.844-6.809-3.766-13.6a3.026,3.026,0,0,0-3.24-2.365q-7.542-.013-15.083,0h-1.095C121.906,200.913,122.547,191.877,123.2,182.727Zm-27.2,43.992L99.8,213.091h.933q18.018,0,36.037-.009c.719,0,1.018.178,1.212.913,1.047,3.966,2.168,7.912,3.26,11.867.074.268.119.543.186.857Zm15.163,5.819a3.053,3.053,0,0,0,3.3,3.323q4.316.016,8.632,0a3.044,3.044,0,0,0,3.253-3.271c.008-.884,0-1.768,0-2.725h11.975c-.447,4.5-.894,9-1.345,13.544H100.4l-1.243-13.575h12C111.154,230.734,111.15,231.637,111.155,232.539Zm3.1.256v-2.953h8.972v2.953Zm72.738,28.815H96.03V246.539h53.007V252.5H133.927c0-.933.012-1.841,0-2.749-.017-1.057-.588-1.715-1.478-1.738-.923-.024-1.536.659-1.552,1.758-.013.948-.026,1.9,0,2.846a2.982,2.982,0,0,0,2.97,2.967q7.637.044,15.274,0a2.978,2.978,0,0,0,2.994-3.04c.03-1.984.007-3.97.007-6.039h34.845Z" transform="translate(-92.928 -167.545)" fill="#fff"/>
    </g>
  </g>
</svg>
