<svg id="Group_8043" data-name="Group 8043" xmlns="http://www.w3.org/2000/svg" width="72.269" height="71.454" viewBox="0 0 72.269 71.454">
  <ellipse id="Ellipse_708" data-name="Ellipse 708" cx="34.328" cy="33.967" rx="34.328" ry="33.967" transform="translate(3.613 3.521)" fill="#7dc242"/>
  <g id="Group_5742" data-name="Group 5742">
    <g id="Group_5639" data-name="Group 5639">
      <path id="Path_688" data-name="Path 688" d="M209.391,199.593c-2.643-1.095-5.281-2.2-7.949-3.314,0-.653.021-1.3-.007-1.937a.832.832,0,0,1,.44-.844,9.137,9.137,0,0,0,3.852-5.123c.085-.272.154-.55.224-.8,1.768-.144,2.879-1.105,2.994-2.542.131-1.641-.741-2.669-2.708-3.167.335-.79.692-1.568,1-2.366a7.381,7.381,0,0,0-2.876-8.94,31.6,31.6,0,0,0-5.153-2.3,6.979,6.979,0,0,0-2.415-.337,9.505,9.505,0,0,0-5.915,2.029,6.344,6.344,0,0,1-1.554,1.005,5.882,5.882,0,0,0-3.87,7.03,3.219,3.219,0,0,1,.045.352h-4.134c.6-3.921-1.009-6.9-4.689-8.6-.777-.359-1.555-.719-2.343-1.054a9.383,9.383,0,0,0-5.666-.573,10.072,10.072,0,0,0-4.141,1.943,5.336,5.336,0,0,1-1.359.879,5.854,5.854,0,0,0-3.422,8.348c.422.855.85,1.706,1.3,2.6-1.774.374-2.718,1.386-2.716,2.855,0,1.562.885,2.4,3.056,2.888a8.223,8.223,0,0,0,3.165,5.166,2.837,2.837,0,0,1,1.339,2.995.713.713,0,0,1-.5.709c-2.593,1.065-5.179,2.149-7.766,3.23a4.646,4.646,0,0,0-2.985,4.473q-.008,6.056,0,12.111c0,.879.319,1.2,1.2,1.2,1.209,0,2.419,0,3.628,0h2.663v.693q0,3.247,0,6.494c0,.923.309,1.238,1.218,1.238q20.3,0,40.6,0c.946,0,1.246-.307,1.246-1.27q0-3.247,0-6.494V217.5c2.117,0,4.161,0,6.205,0,.992,0,1.284-.294,1.285-1.291q0-5.85,0-11.7A4.735,4.735,0,0,0,209.391,199.593ZM184.3,180.109a13.56,13.56,0,0,1,6.216,2.521,5.576,5.576,0,0,1,1.48,7.317c-.29-.576-.553-1.1-.817-1.619-.452-.895-.964-1.024-1.763-.421a10.593,10.593,0,0,1-4.053,2.242,7.413,7.413,0,0,1-5.914-1.1c-.584-.388-1.125-.838-1.7-1.245a.941.941,0,0,0-1.545.371c-.317.6-.611,1.215-.969,1.931-.724-1.319-1.445-2.518-1.133-3.994a3.785,3.785,0,0,1,2.9-3.107,4.142,4.142,0,0,1,4.315,1.412c.219.244.4.522.626.821l1.52-1.011a6.523,6.523,0,0,0-3.774-3.011A7.337,7.337,0,0,1,184.3,180.109ZM182.93,203.43a7.519,7.519,0,0,1-6.765-7.353,13.085,13.085,0,0,0-.015-1.695,6.652,6.652,0,0,1,1.294-4.42c4.144,3.023,8.258,3.041,12.456-.033.433,1.179,1.374,2.112,1.254,3.5a35.885,35.885,0,0,1-.267,4.3A7.391,7.391,0,0,1,182.93,203.43Zm3.524,3.184a.584.584,0,0,1-.154.354c-.855.878-1.72,1.747-2.628,2.665-.926-.924-1.785-1.772-2.629-2.635a.752.752,0,0,1-.19-.454c-.024-.522-.009-1.047-.009-1.637a9.667,9.667,0,0,0,5.617,0C186.46,205.527,186.469,206.071,186.453,206.614Zm-24.335,8.333c0,.209,0,.418,0,.656H156.5v-.616q0-5.295,0-10.59a2.868,2.868,0,0,1,2.011-3.023q4.123-1.72,8.251-3.43c.866-.361.972-.518.973-1.438,0-1.033-.008-2.067,0-3.1a1.12,1.12,0,0,0-.64-1.086,7.4,7.4,0,0,1-3.976-5.657c-.115-.751-.421-.984-1.189-.992-.273,0-.548.016-.819-.011a.928.928,0,0,1,.018-1.852c.329-.027.663,0,.994-.015a.816.816,0,0,0,.875-.711,4.3,4.3,0,0,0-.18-1.762c-.377-.977-.92-1.889-1.383-2.832a3.969,3.969,0,0,1,2.5-5.816,3.371,3.371,0,0,0,1-.585,9.839,9.839,0,0,1,3.982-2.125,7.457,7.457,0,0,1,4.473.363c1.062.436,2.114.9,3.139,1.421a5.647,5.647,0,0,1,2.642,7.326,1.473,1.473,0,0,1-.437.514c-.256.208-.553.364-.819.56a11.687,11.687,0,0,1-2.338,1.4,5.757,5.757,0,0,0-2.852,7.769c.444.949.928,1.879,1.425,2.878-2.467.183-3.617,1.123-3.6,2.874.016,1.79,1.142,2.609,3.9,2.811.052.163.115.341.165.521a9.161,9.161,0,0,0,3.942,5.4.792.792,0,0,1,.422.8c-.029.621-.008,1.245-.008,1.9-1.539.432-3.053.861-4.57,1.282q-4.334,1.2-8.669,2.4A4.709,4.709,0,0,0,162.118,214.947Zm12.148-20.855v1.857c-.6-.007-1.264.226-1.65-.4a1.162,1.162,0,0,1-.048-.963C172.918,193.874,173.625,194.149,174.265,194.092Zm29.045,29.72a1.731,1.731,0,0,1-.034.22h-5.561v-7.42h-1.882v7.415H171.5V216.6h-1.882v7.413h-5.6c-.01-.171-.028-.34-.028-.509q0-4.272,0-8.543a2.806,2.806,0,0,1,2.265-2.986c4.294-1.2,8.591-2.39,12.883-3.6a.75.75,0,0,1,.864.228c.917.958,1.865,1.886,2.807,2.82.63.625,1.064.624,1.7,0,.956-.947,1.913-1.894,2.852-2.858a.666.666,0,0,1,.763-.2c4.349,1.223,8.7,2.424,13.052,3.642a2.755,2.755,0,0,1,2.133,2.677C203.324,217.727,203.312,220.77,203.311,223.812Zm7.493-8.224h-5.573a14.485,14.485,0,0,0-.137-1.667,4.467,4.467,0,0,0-3.34-3.685c-4.307-1.226-8.624-2.412-12.938-3.615-.149-.042-.3-.091-.441-.136a.881.881,0,0,1-.033-.126,5.627,5.627,0,0,1,.049-2.025c.218-.532.9-.876,1.38-1.3a9.72,9.72,0,0,0,3.083-5.2c.308,0,.635,0,.963,0a2.811,2.811,0,1,0,.026-5.617c-.214,0-.427,0-.738,0,.323-.759.641-1.456.921-2.169a7.29,7.29,0,0,0-1.222-7.826,13.278,13.278,0,0,0-2.46-1.931,2.926,2.926,0,0,0-.949-.446,2.994,2.994,0,0,1-2.219-3,3.376,3.376,0,0,1,1.844-3.628,46.081,46.081,0,0,0,3.962-2.429,7.389,7.389,0,0,1,6.585-.49c1.087.424,2.152.914,3.193,1.441a5.632,5.632,0,0,1,2.724,7.064c-.274.728-.657,1.419-.892,2.158a7.648,7.648,0,0,0-.323,1.864.886.886,0,0,0,.953.955c.311.016.625-.011.936.013a.929.929,0,0,1-.013,1.858c-.233.019-.468.005-.7.006-.87,0-1.154.232-1.28,1.095a6.563,6.563,0,0,1-1.62,3.629,14.76,14.76,0,0,1-2.287,1.876,1.3,1.3,0,0,0-.7,1.173q.036,1.608,0,3.218a1.135,1.135,0,0,0,.8,1.2c2.791,1.147,5.572,2.318,8.356,3.481a2.906,2.906,0,0,1,2.087,3.147q0,5.237,0,10.473ZM193.04,195.956v-1.844c.6.017,1.266-.225,1.65.4a1.157,1.157,0,0,1,.043.962C194.38,196.181,193.683,195.939,193.04,195.956Z" transform="translate(-154.626 -167.904)" fill="#0e130d"/>
    </g>
  </g>
</svg>
