<svg id="Group_6146" data-name="Group 6146" xmlns="http://www.w3.org/2000/svg" width="70.624" height="75.883" viewBox="0 0 70.624 75.883">
  <circle id="Ellipse_703" data-name="Ellipse 703" cx="34.328" cy="34.328" r="34.328" transform="translate(1.968 7.227)" fill="#7dc242"/>
  <g id="Group_6005" data-name="Group 6005">
    <path id="Path_802" data-name="Path 802" d="M670.731,361.72c-.671,0-1.341.011-2.012,0,.67.014,1.341,0,2.012,0,.652,0,1.3,0,1.954,0C672.034,361.725,671.382,361.72,670.731,361.72Z" transform="translate(-650.148 -322.157)" fill="#0e130d"/>
    <path id="Path_803" data-name="Path 803" d="M604.875,421.956c-.65,0-1.3.01-1.951,0,.65.012,1.3,0,1.951,0,.669,0,1.339.008,2.008,0C606.213,421.964,605.544,421.956,604.875,421.956Z" transform="translate(-596.016 -371.716)" fill="#0e130d"/>
    <path id="Path_804" data-name="Path 804" d="M605,361.728c-.651,0-1.3.006-1.954,0,.651.008,1.3,0,1.954,0s1.3,0,1.954,0C606.306,361.734,605.655,361.729,605,361.728Z" transform="translate(-596.119 -322.165)" fill="#0e130d"/>
    <path id="Path_805" data-name="Path 805" d="M736.857,361.72c-.69,0-1.38.011-2.069,0,.689.014,1.38,0,2.069,0,.651,0,1.3.007,1.954,0C738.16,361.727,737.509,361.72,736.857,361.72Z" transform="translate(-704.504 -322.157)" fill="#0e130d"/>
    <path id="Path_806" data-name="Path 806" d="M803.2,363.2c-.671,0-1.342.017-2.011,0,.67.022,1.341,0,2.011.006.651,0,1.3.016,1.954,0C804.5,363.216,803.851,363.2,803.2,363.2Z" transform="translate(-759.133 -323.373)" fill="#0e130d"/>
    <path id="Path_807" data-name="Path 807" d="M833.467,273.721c.013-.651,0-1.3,0-1.954q0-.949,0-1.9,0,.948,0,1.9C833.469,272.418,833.48,273.07,833.467,273.721Z" transform="translate(-785.69 -246.592)" fill="#0e130d"/>
    <path id="Path_808" data-name="Path 808" d="M571.941,141.921a2.744,2.744,0,0,1-.012.4.825.825,0,0,1-.069.169c-1.077,0-2.184-.037-3.286.014a5.848,5.848,0,0,0-1.9.331,4.109,4.109,0,0,0-2.7,3.733c-.015.191-.014.383-.014.574q0,22.816.009,45.632a5.782,5.782,0,0,0,.223,1.694,4.216,4.216,0,0,0,3.974,2.946c1.609.024,3.218.008,4.828.008q19.684,0,39.368,0a4.3,4.3,0,0,0,4.447-3.392,5.771,5.771,0,0,0,.1-1.255q.007-22.816,0-45.632a4.333,4.333,0,0,0-4.672-4.653c-1.072,0-2.144,0-3.342,0,.223-1.775-.145-3.267-2.021-3.93H605.38a2.746,2.746,0,0,0-1.98,1.887,6.644,6.644,0,0,0-.112,1.249c-.014.243,0,.488,0,.762H577.562c.207-1.789-.145-3.284-2.073-3.9h-1.495A2.956,2.956,0,0,0,571.941,141.921Zm43.243,51.03a2.572,2.572,0,0,1-2.78,2.748q-21.986,0-43.972,0a2.588,2.588,0,0,1-2.649-1.87,6.3,6.3,0,0,1-.109-.715,5.648,5.648,0,0,0,3.608.869q16.755-.019,33.511,0a5.023,5.023,0,0,0,3.8-1.572c2.66-2.7,5.357-5.373,8.04-8.055.144-.144.3-.28.558-.526v4.806C615.188,190.077,615.2,191.514,615.185,192.951Zm-9.661-8.609a1.858,1.858,0,0,1,1.916-1.766c1.493-.026,2.987-.01,4.481-.011h1.842l-8.253,8.253C605.509,188.73,605.476,186.535,605.523,184.342Zm-.129-43.842a1.535,1.535,0,0,1,1.332-.05c.8.441.376,1.285.478,1.992a3.029,3.029,0,0,1-.334.045c-.591,0-1.182,0-1.862,0C605.112,141.778,604.682,140.976,605.394,140.5Zm-2.1,3.763c0,.864-.018,1.72,0,2.574a2.571,2.571,0,0,0,2.02,2.474,2.266,2.266,0,0,0,.511.058.857.857,0,0,0,.189-1.7c-.888-.2-1-.341-1-1.23,0-.708,0-1.415,0-2.194.215-.01.4-.027.578-.027q3.363,0,6.725,0a2.61,2.61,0,0,1,2.871,2.842c.007,2.4,0,4.79,0,7.185,0,.168-.017.337-.031.578h-.814q-17.647,0-35.294,0a3.99,3.99,0,0,0-.8.048.837.837,0,0,0,.036,1.637,4.991,4.991,0,0,0,.8.037q17.618,0,35.237,0h.864v.677q0,10.634,0,21.269c0,1.625-.726,2.347-2.35,2.349-1.706,0-3.411-.007-5.116,0a3.693,3.693,0,0,0-3.945,3.958c0,1.744,0,3.487,0,5.231a1.989,1.989,0,0,1-2.188,2.219q-16.555,0-33.11,0a2.57,2.57,0,0,1-2.79-2.738q-.01-16.239,0-32.478c0-.132.017-.264.033-.488h.732q4.053,0,8.105,0a2.794,2.794,0,0,0,.685-.05.841.841,0,0,0,.019-1.612,2.639,2.639,0,0,0-.683-.059q-4.053-.006-8.105,0h-.758c-.011-.231-.029-.433-.029-.635q0-3.535,0-7.07a2.627,2.627,0,0,1,2.929-2.9c1.087,0,2.175,0,3.332,0,0,.858-.01,1.657,0,2.455a2.635,2.635,0,0,0,2.048,2.642,2.234,2.234,0,0,0,.511.057.837.837,0,0,0,.914-.761.861.861,0,0,0-.735-.945c-.853-.192-1.012-.383-1.016-1.232,0-.707,0-1.414,0-2.169Zm-29.159-3.811a1.538,1.538,0,0,1,1.291.008c.774.444.316,1.276.455,1.986h-2.228C573.767,141.717,573.353,140.885,574.132,140.453Z" transform="translate(-563.958 -138.561)" fill="#0e130d"/>
    <path id="Path_809" data-name="Path 809" d="M598.888,319.534q-2.068-.057-4.138,0a1.609,1.609,0,0,0-1.635,1.658q-.041,2.069,0,4.138a1.624,1.624,0,0,0,1.744,1.658c.651.008,1.3,0,1.954,0s1.3.005,1.954,0a1.658,1.658,0,0,0,1.795-1.681c.036-1.359.034-2.721,0-4.081A1.646,1.646,0,0,0,598.888,319.534Zm-.083,5.7H594.87v-3.956H598.8Z" transform="translate(-587.929 -287.428)" fill="#0e130d"/>
    <path id="Path_810" data-name="Path 810" d="M731.081,319.539c-1.378-.042-2.759-.038-4.138,0a1.571,1.571,0,0,0-1.641,1.525c-.054,1.472-.055,2.95,0,4.422a1.569,1.569,0,0,0,1.647,1.508c.689.014,1.38,0,2.069,0,.651,0,1.3.007,1.954,0a1.646,1.646,0,0,0,1.752-1.717q.036-2.011,0-4.023A1.629,1.629,0,0,0,731.081,319.539Zm-.115,5.7h-3.938v-3.966h3.938Z" transform="translate(-696.667 -287.431)" fill="#0e130d"/>
    <path id="Path_811" data-name="Path 811" d="M660.876,326.99c.67.014,1.341,0,2.012,0,.651,0,1.3,0,1.954,0a1.657,1.657,0,0,0,1.811-1.721q.044-2.011,0-4.023a1.637,1.637,0,0,0-1.654-1.71c-1.378-.042-2.759-.039-4.138,0a1.588,1.588,0,0,0-1.644,1.584q-.06,2.153,0,4.309A1.589,1.589,0,0,0,660.876,326.99Zm.081-5.712h3.94v3.962h-3.94Z" transform="translate(-642.305 -287.43)" fill="#0e130d"/>
    <path id="Path_812" data-name="Path 812" d="M594.815,259.425a1.632,1.632,0,0,0-1.708,1.761q-.028,1.954,0,3.908a1.665,1.665,0,0,0,1.8,1.788c.632.014,1.264,0,1.9,0,.671,0,1.342.017,2.011,0a1.665,1.665,0,0,0,1.748-1.735q.041-1.982,0-3.965a1.654,1.654,0,0,0-1.729-1.754Q596.827,259.375,594.815,259.425Zm3.99,5.707h-3.927v-3.959H598.8Z" transform="translate(-587.928 -237.978)" fill="#0e130d"/>
    <path id="Path_813" data-name="Path 813" d="M605.235,301.592c-.632,0-1.265.013-1.9,0,.632.014,1.264,0,1.9,0,.671,0,1.342.016,2.012,0C606.576,301.609,605.905,301.592,605.235,301.592Z" transform="translate(-596.357 -272.688)" fill="#0e130d"/>
    <path id="Path_814" data-name="Path 814" d="M659.194,263.14c0,.67-.02,1.342,0,2.011a1.647,1.647,0,0,0,1.748,1.725q1.982.034,3.965,0a1.65,1.65,0,0,0,1.743-1.735q.041-1.982,0-3.965a1.643,1.643,0,0,0-1.726-1.752q-2.01-.049-4.023,0a1.64,1.64,0,0,0-1.711,1.762C659.177,261.837,659.193,262.489,659.194,263.14Zm1.756-1.964h3.943v3.948H660.95Z" transform="translate(-642.305 -237.977)" fill="#0e130d"/>
    <path id="Path_815" data-name="Path 815" d="M659.2,273.447c-.024-.67,0-1.341,0-2.011,0-.651-.018-1.3,0-1.954-.02.651,0,1.3,0,1.954C659.194,272.106,659.174,272.778,659.2,273.447Z" transform="translate(-642.305 -246.273)" fill="#0e130d"/>
    <path id="Path_816" data-name="Path 816" d="M792.976,266.884q2.039.045,4.08,0a1.641,1.641,0,0,0,1.7-1.768c.013-.651,0-1.3,0-1.954q0-.949,0-1.9c0-.038,0-.077,0-.115a1.62,1.62,0,0,0-1.641-1.708q-2.1-.063-4.194,0a1.555,1.555,0,0,0-1.6,1.559c-.054,1.434-.055,2.874,0,4.308A1.579,1.579,0,0,0,792.976,266.884Zm.04-5.7h3.99v3.982c-1.264,0-2.5.006-3.737-.013-.086,0-.24-.191-.242-.294C793.01,263.655,793.016,262.451,793.016,261.183Z" transform="translate(-750.981 -237.99)" fill="#0e130d"/>
    <path id="Path_817" data-name="Path 817" d="M793.011,328.489c.67.022,1.341,0,2.011,0,.651,0,1.3.016,1.954,0a1.658,1.658,0,0,0,1.756-1.776q.022-1.954,0-3.908a1.632,1.632,0,0,0-1.7-1.769q-2.039-.053-4.08,0a1.616,1.616,0,0,0-1.674,1.682q-.059,2.039,0,4.08A1.641,1.641,0,0,0,793.011,328.489Zm.018-5.7h3.949v3.943h-3.949Z" transform="translate(-750.956 -288.667)" fill="#0e130d"/>
    <path id="Path_818" data-name="Path 818" d="M726.935,266.876q2.011.038,4.023,0a1.647,1.647,0,0,0,1.712-1.761c.017-.651,0-1.3,0-1.954,0-.67.017-1.341,0-2.011a1.631,1.631,0,0,0-1.691-1.722q-2.039-.054-4.08,0a1.609,1.609,0,0,0-1.679,1.673q-.059,2.038,0,4.08A1.63,1.63,0,0,0,726.935,266.876Zm.032-5.692h3.93v3.941h-3.93Z" transform="translate(-696.606 -237.978)" fill="#0e130d"/>
    <path id="Path_819" data-name="Path 819" d="M767.381,271.274c0,.651.015,1.3,0,1.954.017-.651,0-1.3,0-1.954,0-.67.016-1.341,0-2.011C767.4,269.933,767.381,270.6,767.381,271.274Z" transform="translate(-731.316 -246.093)" fill="#0e130d"/>
    <path id="Path_820" data-name="Path 820" d="M598.823,379.785q-2.008-.024-4.016,0a1.621,1.621,0,0,0-1.693,1.65q-.044,2.064,0,4.13a1.645,1.645,0,0,0,1.723,1.684c.65.012,1.3,0,1.951,0,.669,0,1.339.008,2.008,0a1.679,1.679,0,0,0,1.77-1.712c.032-1.357.034-2.716,0-4.073A1.658,1.658,0,0,0,598.823,379.785Zm-.012,5.716h-3.948v-3.969h3.948Z" transform="translate(-587.928 -337.012)" fill="#0e130d"/>
    <path id="Path_821" data-name="Path 821" d="M660.949,387.271q1.95.014,3.9,0a1.663,1.663,0,0,0,1.771-1.7q.048-2.035,0-4.073a1.663,1.663,0,0,0-1.784-1.691c-.315,0-.631-.005-.947,0l-.947,0c-.334,0-.669,0-1,0s-.669,0-1,.005a1.647,1.647,0,0,0-1.763,1.7q-.046,2.036,0,4.073A1.646,1.646,0,0,0,660.949,387.271Zm-.018-5.712h3.949v3.955h-3.949Z" transform="translate(-642.274 -337.032)" fill="#0e130d"/>
    <path id="Path_822" data-name="Path 822" d="M676.838,379.8l-.947,0c-.335,0-.669,0-1,0,.335,0,.669,0,1,0Z" transform="translate(-655.222 -337.034)" fill="#0e130d"/>
    <path id="Path_823" data-name="Path 823" d="M725.2,382.58a.841.841,0,0,0,.89.852.817.817,0,0,0,.815-.86c.022-.358,0-.718,0-1.081h4.014v3.977c-1.281,0-2.5.008-3.726-.012-.117,0-.273-.153-.341-.275a.842.842,0,0,0-1.048-.484.827.827,0,0,0-.589.988,1.671,1.671,0,0,0,1.73,1.505c1.284.012,2.568.007,3.851,0a1.7,1.7,0,0,0,1.859-1.854q.019-1.9,0-3.794a1.684,1.684,0,0,0-1.832-1.822c-1.016-.009-2.034.045-3.046-.011-2.42-.134-2.684.974-2.589,2.754C725.2,382.5,725.2,382.542,725.2,382.58Z" transform="translate(-696.599 -336.953)" fill="#0e130d"/>
  </g>
</svg>
