<svg id="Group_8040" data-name="Group 8040" xmlns="http://www.w3.org/2000/svg" width="72.648" height="73.457" viewBox="0 0 72.648 73.457">
  <ellipse id="Ellipse_702" data-name="Ellipse 702" cx="34.328" cy="33.967" rx="34.328" ry="33.967" transform="translate(3.992 5.523)" fill="#7dc242"/>
  <g id="Group_5738" data-name="Group 5738">
    <g id="Group_5643" data-name="Group 5643">
      <path id="Path_700" data-name="Path 700" d="M179.976,109.912a32.405,32.405,0,0,0,21.66-6.957,33.188,33.188,0,0,0,8.936-10.36,2.452,2.452,0,0,0-1.059-3.6.713.713,0,0,1-.482-.783c.012-3.348,0-6.7.012-10.044a2.723,2.723,0,0,0-.9-2.247,9.716,9.716,0,0,0-1.053-.676V71.433H205.24a.76.76,0,0,0-.05.158c-.006,1.148,0,2.3-.024,3.445,0,.175-.111.451-.24.5-.52.2-1.068.336-1.68.516V74.319h-1.931c0,.634-.025,1.217.009,1.8a.568.568,0,0,1-.507.685c-1.106.3-2.2.639-3.3.981a2.619,2.619,0,0,0-1.979,2.636c0,.186,0,.372,0,.566h-5.8c0-.568,0-1.107,0-1.646a1.965,1.965,0,0,0-2.21-2.185c-.535,0-1.071,0-1.671,0V75.287H183.95V77.1H182V73.333h-1.893v3.782h-1.949V75.3h-1.926v1.855c-.542,0-1.043,0-1.543,0-1.574,0-2.293.715-2.3,2.272,0,.517,0,1.034,0,1.539h-5.773c-.166-2.256-.559-2.741-2.709-3.388-.874-.263-1.744-.543-2.625-.784a.543.543,0,0,1-.481-.646c.032-.611.009-1.226.009-1.841h-1.958v1.738c-.5-.148-.92-.31-1.355-.392-.462-.086-.571-.324-.559-.765.03-1.144.01-2.289.01-3.462h-1.935c0,1.185.009,2.33-.01,3.475,0,.176-.09.451-.216.508a2.872,2.872,0,0,0-1.711,2.972c.033,3.29.014,6.58,0,9.87,0,.2-.066.539-.19.588a3.026,3.026,0,0,0-1.732,1.851V91.74a8.923,8.923,0,0,0,.388.839C157.936,103.417,167.418,109.3,179.976,109.912Zm18.338-30.351q3.765-1.136,7.531-2.269c.911-.274,1.267,0,1.267.959q0,4.932,0,9.865v.566h-5.8c0-1.815,0-3.582,0-5.35a3.657,3.657,0,0,0-.1-.98,1.9,1.9,0,0,0-1.857-1.335c-.6-.018-1.2,0-1.795,0C197.312,80.136,197.485,79.811,198.314,79.561Zm-8.548,3.452h9.59V88.68h-9.59Zm-1.9,7.666h20.175c1.035,0,1.228.33.7,1.233a31.706,31.706,0,0,1-20.672,15.334,1.224,1.224,0,0,1-.2.012c-.04-.248-.072-.5-.121-.739a2.84,2.84,0,0,0-2.464-2.309c-.987-.131-1.347-.422-1.313-1.059s.448-.9,1.429-.9c1.071,0,2.142,0,3.213,0a2.912,2.912,0,0,0,3.064-2.8c.072-.77.378-1.051,1.169-1.053,1.869,0,3.738.016,5.607-.011a2.889,2.889,0,0,0,2.8-2.292,2.831,2.831,0,0,0-1.645-3.214,4.22,4.22,0,0,0-1.532-.279c-2.861-.026-5.723-.012-8.585-.012C187.939,92.587,187.718,92.34,187.866,90.679ZM174.336,79.144h13.447V88.7H174.336Zm-1.945,11.569h13.488c0,.288-.007.571,0,.854a2.91,2.91,0,0,0,3.019,2.964c3.075.011,6.151,0,9.226.008.246,0,.583-.017.719.126a1.661,1.661,0,0,1,.51.947.8.8,0,0,1-.826.817c-.66.032-1.322.021-1.984.023-1.226,0-2.453-.005-3.679,0a2.911,2.911,0,0,0-3.122,2.8c-.091.789-.367,1.045-1.174,1.05-1.187.008-2.375-.011-3.562.008a2.821,2.821,0,0,0-2.73,1.752,2.747,2.747,0,0,0,.441,3.006,2.811,2.811,0,0,0,1.965,1.026c1.039.108,1.285.422,1.133,1.579a22.186,22.186,0,0,1-2.629.269c-2.136-.023-4.272-.137-6.408-.211-.365-.013-.531-.132-.542-.554a2.859,2.859,0,0,0-2.793-3,1.068,1.068,0,0,1-.982-.61.946.946,0,0,1,.875-1.317c.6-.028,1.207,0,1.81-.009a2.9,2.9,0,1,0,0-5.791c-3.64-.016-7.28-.005-10.92-.006a5.785,5.785,0,0,1-.583-.013.947.947,0,0,1,.022-1.893c.778-.025,1.557-.01,2.335-.01,1.09,0,2.18,0,3.27,0a2.934,2.934,0,0,0,3.12-3.1C172.393,91.2,172.391,90.973,172.391,90.712ZM172.357,83v5.7h-9.6V83Zm-17.342,5.12q0-4.932,0-9.865c0-.965.353-1.231,1.267-.957q3.739,1.123,7.476,2.251c.883.266,1,.457.844,1.469-.553,0-1.078,0-1.6,0a1.962,1.962,0,0,0-2.188,2.2c-.006,1.6,0,3.191,0,4.787v.679h-5.8Zm-.994,2.564h16.423c0,.33.006.581,0,.831a.954.954,0,0,1-1.083,1.073c-1.772.01-3.543-.007-5.315.011a4.405,4.405,0,0,0-1.263.173,2.84,2.84,0,0,0-1.931,3.208,2.886,2.886,0,0,0,2.876,2.412c3.251.019,6.5.007,9.753.008.565,0,1.129-.007,1.693,0a.982.982,0,0,1,1.065.927.969.969,0,0,1-1.068.979c-.584.014-1.169-.011-1.752.01a2.9,2.9,0,1,0-.126,5.793c.692.06.979.381.978,1.191-.817-.214-1.623-.388-2.406-.635a31.652,31.652,0,0,1-18.5-14.795C152.877,91.029,153.074,90.68,154.021,90.679Z" transform="translate(-151.158 -50.152)" fill="#0e130d"/>
      <path id="Path_701" data-name="Path 701" d="M153.222,44.628q3.145,3.912,6.276,7.837c.106.132.223.255.371.425,2.412-3.042,4.921-5.953,7.143-9.068A8.7,8.7,0,0,0,163.5,30.963a20.456,20.456,0,0,0-2.649-.832h-1.986a18.927,18.927,0,0,0-2.444.723,8.5,8.5,0,0,0-5.156,6.6c-.024.132-.072.259-.109.389v2.1a.84.84,0,0,1,.089.21A8.821,8.821,0,0,0,153.222,44.628Zm.974-9.463a6.315,6.315,0,0,1,6.725-2.99,6.405,6.405,0,0,1,5.467,5.073,6.3,6.3,0,0,1-.969,5.509c-1.773,2.386-3.675,4.675-5.576,7.073-1.914-2.412-3.881-4.658-5.576-7.094A6.452,6.452,0,0,1,154.2,35.165Z" transform="translate(-151.158 -30.131)" fill="#0e130d"/>
      <path id="Path_702" data-name="Path 702" d="M237.589,31.48a8.827,8.827,0,0,0-2.114,12.961c2.153,2.76,4.367,5.471,6.551,8.207a2.209,2.209,0,0,1,.168.353c2.545-3.242,5.185-6.208,7.368-9.478a8.687,8.687,0,0,0-5.122-13.1c-.41-.11-.827-.193-1.24-.288h-1.986a1.987,1.987,0,0,1-.323.106A8.485,8.485,0,0,0,237.589,31.48Zm6.055.738a6.708,6.708,0,0,1,5.221,5.416,6.339,6.339,0,0,1-1.02,5.067c-1.79,2.4-3.694,4.706-5.613,7.133-1.91-2.409-3.822-4.691-5.585-7.083a6.826,6.826,0,0,1-.027-7.688A6.746,6.746,0,0,1,243.644,32.218Z" transform="translate(-191.098 -30.131)" fill="#0e130d"/>
      <path id="Path_703" data-name="Path 703" d="M194.3,44.483c2.118,2.692,4.275,5.353,6.412,8.03.094.118.163.256.293.462,2.522-3.2,5.14-6.139,7.312-9.375a8.7,8.7,0,0,0-5.066-13.178c-.389-.105-.783-.194-1.174-.291h-2.1c-.392.1-.785.185-1.175.29A8.811,8.811,0,0,0,194.3,44.483Zm7.816-12.333a6.719,6.719,0,0,1,5.492,5.216,6.174,6.174,0,0,1-.859,5.143c-1.8,2.48-3.76,4.845-5.709,7.33-1.9-2.384-3.755-4.632-5.513-6.957a6.855,6.855,0,0,1-.225-7.639A6.773,6.773,0,0,1,202.121,32.15Z" transform="translate(-171.124 -30.131)" fill="#0e130d"/>
      <path id="Path_704" data-name="Path 704" d="M201.779,90.1h-1.84v1.866h1.84Z" transform="translate(-174.809 -59.207)" fill="#0e130d"/>
      <path id="Path_705" data-name="Path 705" d="M209.242,90.124h-1.83v1.859h1.83Z" transform="translate(-178.433 -59.218)" fill="#0e130d"/>
      <path id="Path_706" data-name="Path 706" d="M199.97,99.475H201.8V97.621H199.97Z" transform="translate(-174.824 -62.853)" fill="#0e130d"/>
      <path id="Path_707" data-name="Path 707" d="M207.431,99.481h1.833V97.6h-1.833Z" transform="translate(-178.442 -62.841)" fill="#0e130d"/>
      <path id="Path_708" data-name="Path 708" d="M214.937,99.474h1.838V97.609h-1.838Z" transform="translate(-182.081 -62.847)" fill="#0e130d"/>
      <path id="Path_709" data-name="Path 709" d="M216.752,90.087h-1.809v1.879h1.809Z" transform="translate(-182.084 -59.2)" fill="#0e130d"/>
      <path id="Path_710" data-name="Path 710" d="M162.491,99.475h1.838V97.6h-1.838Z" transform="translate(-156.653 -62.842)" fill="#0e130d"/>
      <path id="Path_711" data-name="Path 711" d="M164.306,90.123h-1.842v1.862h1.842Z" transform="translate(-156.64 -59.218)" fill="#0e130d"/>
      <path id="Path_712" data-name="Path 712" d="M252.352,99.474H254.2V97.588h-1.848Z" transform="translate(-200.221 -62.837)" fill="#0e130d"/>
      <path id="Path_713" data-name="Path 713" d="M254.2,90.1h-1.848v1.886H254.2Z" transform="translate(-200.221 -59.206)" fill="#0e130d"/>
      <path id="Path_714" data-name="Path 714" d="M179.308,97.572h-1.822v1.886h1.822Z" transform="translate(-163.923 -62.83)" fill="#0e130d"/>
      <path id="Path_715" data-name="Path 715" d="M186.8,97.625h-1.848v1.85H186.8Z" transform="translate(-167.541 -62.855)" fill="#0e130d"/>
      <path id="Path_716" data-name="Path 716" d="M229.869,99.473h1.84V97.606h-1.84Z" transform="translate(-189.321 -62.846)" fill="#0e130d"/>
      <path id="Path_717" data-name="Path 717" d="M237.359,99.474H239.2V97.6h-1.843Z" transform="translate(-192.952 -62.844)" fill="#0e130d"/>
      <path id="Path_718" data-name="Path 718" d="M163.467,47.272a4.824,4.824,0,1,0-4.818-4.846A4.854,4.854,0,0,0,163.467,47.272Zm.094-7.707a2.885,2.885,0,1,1-2.971,2.792A2.874,2.874,0,0,1,163.562,39.565Z" transform="translate(-154.79 -33.764)" fill="#0e130d"/>
      <path id="Path_719" data-name="Path 719" d="M245.886,47.271a4.824,4.824,0,1,0-4.846-4.821A4.847,4.847,0,0,0,245.886,47.271Zm-.021-7.709a2.885,2.885,0,1,1-2.886,2.883A2.864,2.864,0,0,1,245.865,39.562Z" transform="translate(-194.737 -33.763)" fill="#0e130d"/>
      <path id="Path_720" data-name="Path 720" d="M204.694,47.272a4.824,4.824,0,1,0-4.82-4.83A4.822,4.822,0,0,0,204.694,47.272Zm-.04-7.709a2.885,2.885,0,1,1-2.871,2.911A2.9,2.9,0,0,1,204.655,39.563Z" transform="translate(-174.778 -33.763)" fill="#0e130d"/>
    </g>
  </g>
</svg>
