<svg id="Group_8041" data-name="Group 8041" xmlns="http://www.w3.org/2000/svg" width="81.165" height="75.16" viewBox="0 0 81.165 75.16">
  <circle id="Ellipse_707" data-name="Ellipse 707" cx="34.328" cy="34.328" r="34.328" transform="translate(12.509 6.504)" fill="#7dc242"/>
  <g id="Group_5740" data-name="Group 5740">
    <g id="Group_5641" data-name="Group 5641">
      <path id="Path_694" data-name="Path 694" d="M491.1,48.694a.724.724,0,0,1-.6-.62,11.974,11.974,0,0,0-9.022-9.37,1.119,1.119,0,0,1-.5-.186,1.966,1.966,0,0,1,.434-2.037q4.035-2.06,8.071-4.12c.763-.392.844-.661.464-1.425q-.536-1.076-1.092-2.14c-.4-.765-.664-.86-1.415-.478-3.222,1.639-6.438,3.292-9.665,4.922a2.4,2.4,0,0,0-1.417,2.314c0,.848-.012,1.7.005,2.544.007.354-.1.5-.472.6a11.965,11.965,0,0,0-9.116,9.355.709.709,0,0,1-.571.635,1.982,1.982,0,0,0-1.555,2.006c-.021.733-.006,1.467-.006,2.2,0,1.263.1,1.391,1.375,1.36.543-.013.757.127.8.7.349,4.453.731,8.9,1.1,13.356q.77,9.28,1.539,18.561a2.069,2.069,0,0,0,2.12,2.006c4.7.013,9.4.028,14.092-.024a2.207,2.207,0,0,0,1.544-.694,3.762,3.762,0,0,0,.631-1.888c.335-3.558.6-7.121.9-10.682q.593-7.123,1.191-14.245c.2-2.326.393-4.651.6-7.079.443,0,.806,0,1.169,0a.793.793,0,0,0,.918-.865c.01-.94.032-1.881-.013-2.818A1.926,1.926,0,0,0,491.1,48.694Zm-10.112-8.472a10.317,10.317,0,0,1,8.038,8.365h-8.038Zm-3.056-4.988c.012-.225.307-.515.543-.637,3.048-1.574,6.109-3.124,9.224-4.709l.706,1.319c-.844.436-1.65.857-2.459,1.271-1.935.988-3.865,1.988-5.813,2.949a1.177,1.177,0,0,0-.749,1.244c.028.544.006,1.091.006,1.7H477.9C477.9,37.316,477.869,36.272,477.927,35.233Zm1.42,4.706v8.609H477.92V39.94Zm-3.023.279v8.326h-8.079A10.347,10.347,0,0,1,476.324,40.218Zm-8.053,14.105h8.054v2.049h-7.878Zm20.1,7.727q-.593,7.121-1.191,14.242-.428,5.135-.849,10.272c-.044.546-.277.817-.867.815q-6.839-.019-13.678,0a.715.715,0,0,1-.833-.761q-.681-8.355-1.384-16.708c-.3-3.561-.608-7.121-.907-10.681-.034-.4-.038-.81-.057-1.252h7.75v.9q0,12.2,0,24.4c0,1.234.136,1.368,1.383,1.369.71,0,1.42.008,2.13,0,.823-.011,1.01-.2,1.022-1.02.007-.481,0-.962,0-1.443V58h7.8C488.59,59.365,488.486,60.708,488.374,62.05Zm-10.463-5.679V54.308h1.434v2.063ZM479.342,58v25.1h-1.428V58Zm9.5-1.609h-7.9V54.326H489C488.948,55.006,488.9,55.662,488.838,56.388Zm2.283-3.675H466.168c0-.7-.039-1.4.026-2.089.017-.188.322-.4.54-.5a1.508,1.508,0,0,1,.61-.021h22.59c1.132,0,1.186.056,1.186,1.215C491.121,51.767,491.121,52.221,491.121,52.712Z" transform="translate(-437.126 -28.1)" fill="#0e130d"/>
      <path id="Path_695" data-name="Path 695" d="M441.834,76.719a.982.982,0,0,1-.56-.531c-.278-.8-.469-1.626-.724-2.433a2.092,2.092,0,0,0-2.124-1.624c-1.924-.031-3.85-.01-5.774-.013a.836.836,0,0,0-.92.81,1.377,1.377,0,0,1-2.75.024c-.08-.545-.344-.831-.9-.831-1.947,0-3.9-.02-5.843.014a2.077,2.077,0,0,0-2.073,1.6c-.262.829-.463,1.677-.743,2.5a.9.9,0,0,1-.523.484,2.267,2.267,0,0,0-1.738,1.987c-.045,1.007-.024,2.017-.011,3.025a.733.733,0,0,0,.836.787c.386,0,.772,0,1.229,0,.181,1.589.362,3.129.53,4.67q.986,9.016,1.969,18.032a2.194,2.194,0,0,0,2.472,2.187q6.153.007,12.305,0a2.23,2.23,0,0,0,2.509-2.3c.1-1.072.224-2.141.342-3.211q.792-7.2,1.588-14.41c.18-1.636.361-3.272.549-4.967.391,0,.731,0,1.071,0,.769-.012.993-.222,1-.968.009-.871.013-1.742,0-2.612A2.28,2.28,0,0,0,441.834,76.719Zm-20.109-2.733c.065-.177.441-.334.677-.338q2.369-.046,4.74,0a.763.763,0,0,1,.543.366,2.926,2.926,0,0,0,5.338.019.831.831,0,0,1,.6-.384c1.533-.032,3.068-.011,4.6-.02a.846.846,0,0,1,.936.712c.191.749.418,1.489.656,2.326H420.892C421.171,75.737,421.406,74.846,421.725,73.986Zm-.052,16.892h2.193v4.386H422.16C422,93.8,421.839,92.368,421.673,90.878Zm16.49,8.065c-.219,2.026-.457,4.05-.664,6.077a.832.832,0,0,1-.966.879q-6.185-.023-12.37,0c-.51,0-.86-.15-.92-.692q-.442-4.028-.87-8.058a2.013,2.013,0,0,1,.034-.335c.762,0,1.514-.02,2.261.016.163.008.343.2.468.344a6.636,6.636,0,0,0,10.456-.009,1.081,1.081,0,0,1,.675-.339c.658-.046,1.321-.016,2.091-.016C438.291,97.558,438.238,98.252,438.164,98.943Zm-12.934-5.849a5.13,5.13,0,1,1,5.126,5.083A5.142,5.142,0,0,1,425.229,93.095Zm13.331,2.159h-1.9a7.243,7.243,0,0,0-.005-4.381h2.381C438.877,92.345,438.72,93.78,438.56,95.253Zm.962-8.676c-.075.706-.2,1.409-.225,2.117-.022.521-.237.692-.723.63a2.521,2.521,0,0,0-.549,0,3.719,3.719,0,0,1-3.29-1.2,6.458,6.458,0,0,0-9.5.7,1.2,1.2,0,0,1-1.1.5c-.732-.035-1.467.016-2.2-.03a.649.649,0,0,1-.473-.4c-.253-2.088-.467-4.18-.7-6.353h19.179C439.8,83.913,439.664,85.245,439.522,86.577Zm2.527-5.626H418.664c0-.69-.005-1.328,0-1.967a.7.7,0,0,1,.764-.778c.16-.005.321,0,.481,0H440.8c1.144,0,1.244.1,1.245,1.264C442.05,79.944,442.049,80.423,442.049,80.951Z" transform="translate(-417.14 -46.619)" fill="#0e130d"/>
    </g>
  </g>
</svg>
