<svg id="Group_8039" data-name="Group 8039" xmlns="http://www.w3.org/2000/svg" width="74.502" height="73.622" viewBox="0 0 74.502 73.622">
  <ellipse id="Ellipse_705" data-name="Ellipse 705" cx="34.328" cy="33.967" rx="34.328" ry="33.967" transform="translate(5.847 5.689)" fill="#7dc242"/>
  <g id="Group_5741" data-name="Group 5741">
    <g id="Group_5640" data-name="Group 5640">
      <path id="Path_689" data-name="Path 689" d="M30.939,228.845H58.819V219.8c0-3.8-.007-7.6,0-11.405a3.92,3.92,0,0,1,2.8-3.795.668.668,0,0,1,.908.306,9.85,9.85,0,0,0,1.149,1.5,11.885,11.885,0,0,0,18.68-1.377.822.822,0,0,1,1.141-.374,3.932,3.932,0,0,1,2.65,3.843q.007,9.789,0,19.578v.736H88.1v-.758c0-6.343-.033-12.686.017-19.029a6.27,6.27,0,0,0-2.916-5.744,10.016,10.016,0,0,0,.456-5.658c-.43-2.211-.776-4.438-1.166-6.657A1.192,1.192,0,0,1,84.9,189.7a3.825,3.825,0,0,0-.254-5.87,1.056,1.056,0,0,1-.462-.956,14.6,14.6,0,0,0-.14-2.6,10.506,10.506,0,0,0-6.484-8.176,13.77,13.77,0,0,0-7.978-.622,10.6,10.6,0,0,0-8.812,10.659c-.008,3.9,0,7.807-.012,11.71a1.869,1.869,0,0,1-.246.9,9.227,9.227,0,0,0-1.342,6.126c.115.817.337,1.618.519,2.466l-.873.612v-2.454c0-1.84-.086-1.927-1.916-1.927H51.986c0-.687.005-1.312,0-1.938a5.863,5.863,0,0,0-8.384-5.3,1.058,1.058,0,0,1-.775.011,5.858,5.858,0,0,0-8.411,5.446c0,.582,0,1.164,0,1.784H30.931c-1.117,0-1.4.282-1.4,1.409q0,13.235,0,26.47C29.534,228.562,29.817,228.845,30.939,228.845Zm42.5-20.554a9.932,9.932,0,0,1-8.89-3.846c1.367,0,2.559,0,3.751,0,.917,0,1.25-.334,1.253-1.248,0-1.337,0-2.675,0-3.966a27.207,27.207,0,0,0,2.946.31,26.065,26.065,0,0,0,2.911-.309v3.145c0,2.038.03,2.068,2.08,2.068H80.4A9.791,9.791,0,0,1,73.442,208.291Zm8.833-23.32a1.889,1.889,0,0,1,1.923,1.866,1.918,1.918,0,0,1-1.923,1.959Zm.21,5.809c.1.73.177,1.463.3,2.188.357,2.019.765,4.029,1.1,6.051a6.662,6.662,0,0,1-.492,3.506H77.367a20.6,20.6,0,0,0-.013-2.149A3.032,3.032,0,0,1,78.76,197.2a8.575,8.575,0,0,0,3.374-5.936c.026-.166.076-.328.115-.491Zm-6.094-16.935c3.083.183,6.146,4.958,5.81,9.226a5.668,5.668,0,0,1-1.159-.374A10.264,10.264,0,0,1,76.5,177.17a3.248,3.248,0,0,1-.109-1.014C76.38,175.386,76.391,174.616,76.391,173.844Zm-1.335,4.972a12.563,12.563,0,0,0,4.846,5.5c.165.1.376.313.375.472a59.922,59.922,0,0,1-.128,6.268,7.639,7.639,0,0,1-6.951,6.534,7.849,7.849,0,0,1-7.977-4.92.775.775,0,0,1,.047-.647,9.586,9.586,0,0,0,2.167-4.264c1.173.226,1.981-.242,2.111-1.16.135-.958-.55-1.621-1.814-1.694.029-.173.045-.343.087-.506a6.484,6.484,0,0,1,3.4-4.314c1.168-.605,2.4-1.093,3.626-1.646C74.926,178.578,75,178.693,75.056,178.816Zm-12.332,12.45c0-3.046-.005-6.093,0-9.139a8.783,8.783,0,0,1,8.98-8.916c.889,0,1.778,0,2.731,0,0,1.093.015,2.083-.018,3.071,0,.13-.231.3-.391.37-.994.46-2,.885-3,1.344a8.616,8.616,0,0,0-5.374,8.078,6.9,6.9,0,0,1-1.521,4.214c-.418.523-.853,1.031-1.281,1.545l-.129-.04Zm.932,2.74a8.947,8.947,0,0,0,3.106,3.662,1.639,1.639,0,0,1,.86,1.716c-.071,1.006-.017,2.021-.017,3.134H61.618C60.309,200.008,61.177,196.3,63.656,194.006Zm-8.738,7.755a1.416,1.416,0,0,1,.04-.215h1.88V225.48c-.661-.665-1.256-1.251-1.831-1.856a.632.632,0,0,1-.088-.4Q54.913,212.494,54.918,201.762Zm.342,25.131H52.59L54,225.506Zm-4.2-25.348h1.9v.681q0,10.368.009,20.735a1.246,1.246,0,0,1-.407,1.013c-.489.458-.933.963-1.5,1.557ZM48.324,194.4c1.859,1.253,1.8,3.162,1.676,5.145H46.122c.06-1.959.113-3.919-1.3-5.587A3.749,3.749,0,0,1,48.324,194.4Zm-5.129.686c1.233,1.29.957,2.869.977,4.455H42.245C42.237,197.992,41.97,196.415,43.194,195.081Zm-6.661,1.5a3.752,3.752,0,0,1,5-2.588c-1.342,1.614-1.33,3.544-1.243,5.524H36.312A18.805,18.805,0,0,1,36.533,196.584Zm.785,12.073c-.024-.784.373-1.053.987-1.352v1h1.938q.024-.46.051-.939c.9.326.954.4.954,1.274v7.47h-3.9v-.636C37.343,213.2,37.388,210.928,37.318,208.657Zm-5.8-7.09H34.4v1.868h1.94v-1.877h1.981c0,1.042.014,2.073-.015,3.1a.723.723,0,0,1-.319.45c-.664.468-1.343.916-2.025,1.359a1.174,1.174,0,0,0-.573,1.068c.007,3.151,0,6.3.007,9.453a.99.99,0,0,0,1.135,1.116q2.775.012,5.55,0A.992.992,0,0,0,43.2,216.97c.007-3.13,0-6.262.008-9.392a1.218,1.218,0,0,0-.591-1.122c-.683-.441-1.361-.89-2.025-1.359a.713.713,0,0,1-.3-.459c-.028-1.013-.014-2.027-.014-3.081h3.9v1.864h1.94v-1.873h2.895v25.3H31.52Z" transform="translate(-29.534 -171.164)" fill="#0e130d"/>
      <path id="Path_690" data-name="Path 690" d="M90.694,259.922a6.8,6.8,0,0,1-.892-7.663l-1.646-.987c-.143.278-.277.5-.379.742a8.367,8.367,0,0,0,.686,8.082,3.222,3.222,0,0,1,.544,1.92c-.045,1.128-.012,2.258-.012,3.373h1.952c0-1.612.01-3.175-.011-4.738A1.3,1.3,0,0,0,90.694,259.922Z" transform="translate(-55.803 -207.757)" fill="#0e130d"/>
      <path id="Path_691" data-name="Path 691" d="M125.79,251.276l-1.654.985a6.788,6.788,0,0,1-.9,7.664.918.918,0,0,0-.219.491c-.016,1.658-.01,3.316-.01,4.982h1.939c0-1.338-.022-2.636.014-3.932a2.027,2.027,0,0,1,.313-1,8.676,8.676,0,0,0,1.116-7.892A13.705,13.705,0,0,0,125.79,251.276Z" transform="translate(-72.231 -207.759)" fill="#0e130d"/>
      <path id="Path_692" data-name="Path 692" d="M106.271,210.224a2.873,2.873,0,0,0,2.778-2.9h-1.877c-.133.512-.393.913-.971.937-.64.027-.91-.419-1.06-.921h-1.888A2.912,2.912,0,0,0,106.271,210.224Z" transform="translate(-63.209 -187.684)" fill="#0e130d"/>
      <path id="Path_693" data-name="Path 693" d="M115.52,199.421A1.461,1.461,0,1,0,114,198,1.477,1.477,0,0,0,115.52,199.421Z" transform="translate(-68.119 -182.737)" fill="#0e130d"/>
    </g>
  </g>
</svg>
