<svg id="Group_8044" data-name="Group 8044" xmlns="http://www.w3.org/2000/svg" width="76.534" height="70.605" viewBox="0 0 76.534 70.605">
  <ellipse id="Ellipse_706" data-name="Ellipse 706" cx="34.328" cy="33.967" rx="34.328" ry="33.967" transform="translate(7.878 2.672)" fill="#7dc242"/>
  <g id="Group_6004" data-name="Group 6004">
    <path id="Path_801" data-name="Path 801" d="M155.057,184.489c.445-.9.927-1.788,1.411-2.719l-1.9-1.075c-1.053,2.309-2.14,4.494-3.055,6.748a20.447,20.447,0,0,0-1.708,8.965,7.088,7.088,0,0,0,6.81,6.936A19.353,19.353,0,0,0,164,202.239a52.45,52.45,0,0,0,11.42-5.621,1.561,1.561,0,0,1,1.008-.238,23.836,23.836,0,0,0,8.126.215,24.542,24.542,0,0,0,19.117-13.966c.42-.837.746-1.722,1.136-2.633a2.506,2.506,0,0,1,.191.234,47.44,47.44,0,0,1,4.414,9.211,17.67,17.67,0,0,1,1.115,6.863,4.859,4.859,0,0,1-3.387,4.663,9.548,9.548,0,0,1-4.3.213,28.555,28.555,0,0,1-8.27-2.725c-1.357-.652-2.683-1.37-4.07-2.081l-1.038,1.795c1.476.758,2.873,1.53,4.316,2.207a27.341,27.341,0,0,0,10.971,3.006c4.551.114,7.681-2.751,7.87-7.285a19.321,19.321,0,0,0-1-6.629,51.447,51.447,0,0,0-5.739-11.791,1.648,1.648,0,0,1-.2-1.074,24.8,24.8,0,0,0-.012-9.279,1.513,1.513,0,0,1,.225-1.21,53.635,53.635,0,0,0,4.717-8.922,22.32,22.32,0,0,0,2-9.755,6.882,6.882,0,0,0-5.669-6.731,13.278,13.278,0,0,0-4.964.026,32.934,32.934,0,0,0-8.96,3.114c-1,.489-1.972,1.024-2.991,1.556l1.015,1.783c1.246-.634,2.383-1.257,3.558-1.8,1.194-.55,2.409-1.068,3.645-1.514a17.367,17.367,0,0,1,7.538-1.271,4.662,4.662,0,0,1,4.606,4.21,14.263,14.263,0,0,1-.085,4.117,32.359,32.359,0,0,1-3.747,9.955c-.531,1-1.108,1.971-1.729,3.071-.161-.408-.266-.661-.362-.918a24.91,24.91,0,0,0-27.993-15.574,1.534,1.534,0,0,1-1.009-.215,57.549,57.549,0,0,0-8.989-4.729,22.256,22.256,0,0,0-9.819-1.989,6.754,6.754,0,0,0-6.619,5.61,14.323,14.323,0,0,0-.13,4.057,29.262,29.262,0,0,0,3.2,9.867c.507,1.042,1.07,2.057,1.631,3.131l1.671-.948c-1.106-2.5-2.258-4.892-3.231-7.357a16.327,16.327,0,0,1-1.286-7.534,4.668,4.668,0,0,1,4.207-4.61,14.233,14.233,0,0,1,4.117.083,32.856,32.856,0,0,1,10.126,3.837c.94.5,1.855,1.052,2.787,1.582-10.491,4.4-16.64,12.018-16.728,23.456-.09,11.642,6.069,19.415,16.676,23.885a46.214,46.214,0,0,1-9.974,4.747,17.338,17.338,0,0,1-6.245.922c-2.694-.169-4.469-1.6-4.845-4.256a14.668,14.668,0,0,1,.121-4.243A28.9,28.9,0,0,1,155.057,184.489ZM178.5,194.545a107.774,107.774,0,0,0,17.648-15.76,1.655,1.655,0,0,1,.635,1.463c-.05.753.02,1.514-.02,2.268a2.552,2.552,0,0,0,.92,2.179c.486.426.954.872,1.415,1.3A22.548,22.548,0,0,1,178.5,194.545Zm17.23-22.995a1.857,1.857,0,0,0-.076-.7,5.347,5.347,0,0,0-2.746-2.777,1.953,1.953,0,0,0-1.432.077,5.9,5.9,0,0,1-4.2.128,1.553,1.553,0,0,1-1.348-1.324c-.476-2.2-.535-2.191.82-4.03a1.051,1.051,0,0,1,.619-.323c.292-.055.609.027.9-.02,1.954-.315,3.372.653,4.573,1.992,2.063,2.3,4.065,4.653,6.091,6.986.1.111.175.237.291.4l-2.865,3.48a1.565,1.565,0,0,1-.638-1.354C195.768,173.239,195.737,172.394,195.729,171.551Zm7.257,7.291a25.653,25.653,0,0,1-2.723,5.614c-.461-.508-.9-.969-1.308-1.458a.828.828,0,0,1-.1-.483c-.01-.734-.046-1.47.005-2.2a3.277,3.277,0,0,0-.866-2.616,5.579,5.579,0,0,1-.384-.527l2.935-3.539c.716,1.006,1.349,2,2.1,2.909A2.1,2.1,0,0,1,202.986,178.841Zm.945-9.47v5.119l-.154.039c-.6-.8-1.2-1.6-1.784-2.419a.432.432,0,0,1,.021-.4c.573-.8,1.166-1.59,1.753-2.382Zm-.671-3.242a.589.589,0,0,1-.128.41c-.834,1.206-1.679,2.4-2.573,3.68L196.4,165.3c1.122.019,2.167.665,3.218.1.949-.507,1.877-1.053,2.933-1.649C202.8,164.586,203.046,165.354,203.259,166.129Zm-4.014-7.406a4.946,4.946,0,0,1,.436-.26l2.048,3.354c-1.027.587-1.948,1.139-2.9,1.637a1.275,1.275,0,0,1-.751,0c-1.229-.235-2.456-.481-3.678-.75a1.528,1.528,0,0,1-.746-.348c-1.293-1.33-2.559-2.686-3.794-3.991.962-.236,2.042-.528,3.137-.751a1.851,1.851,0,0,1,1.036.114,22.587,22.587,0,0,1,2.319,1.149A2.376,2.376,0,0,0,199.245,158.724Zm-6.033-5.52a2.276,2.276,0,0,1,1.951.677c1.063.943,2.119,1.894,3.17,2.833-.334.477-.637.529-1.058.3-.834-.451-1.7-.841-2.54-1.284a2.619,2.619,0,0,0-2-.217c-.769.211-1.558.354-2.317.595a1.352,1.352,0,0,1-1.37-.26c-.368-.292-.78-.529-1.206-.814.356-.538.664-1.055,1.03-1.527a.844.844,0,0,1,.589-.253A35.742,35.742,0,0,0,193.212,153.2Zm-2.829-2.036c-.409,0-.818,0-1.227,0a2.106,2.106,0,0,0-1.912,1.009c-.557.863-1.1,1.733-1.67,2.625-.526-.437-1.15-.934-1.743-1.465a1,1,0,0,1-.251-.556,1.959,1.959,0,0,0-1.784-1.847,6,6,0,0,1-3.3-1.674A21.526,21.526,0,0,1,190.384,151.168Zm-30.748,13.249a22.855,22.855,0,0,1,14.9-14.332c.508-.168.768-.061.948.4a2.841,2.841,0,0,0,2.78,1.943,4.054,4.054,0,0,1,2.82,1.461,5.752,5.752,0,0,1-1.093.641c-.843.263-1.708.461-2.57.655a2.577,2.577,0,0,0-1.577,1.046c-.738,1.012-1.482,2.021-2.258,3a5.012,5.012,0,0,1-.87.733,2.74,2.74,0,0,1-.287.147,17.783,17.783,0,0,1-6.636,2.221c-1.7.266-2.231.948-2.231,2.674,0,.367,0,.735,0,1.1a2.086,2.086,0,0,0,.957,1.81c.535.364,1.054.76,1.618,1.075a.947.947,0,0,1,.546,1.043c-.039.377-.008.762-.008,1.251-1.548-.779-3.009-1.509-4.461-2.255a1.3,1.3,0,0,1-.341-.384c-.639-.816-1.237-1.669-1.926-2.442A1.538,1.538,0,0,1,159.636,164.417Zm-1.015,10.731a20.478,20.478,0,0,1,.017-6.651c.015-.1.043-.2.094-.432,1.143,1.24,1.879,2.722,3.5,3.354,1.5.583,2.9,1.394,4.444,2.152,0,.9-.04,1.962.019,3.015a2.283,2.283,0,0,0,.418,1.318,8.416,8.416,0,0,0,3.121,2.663.8.8,0,0,1,.6.975c-.342,2.565.559,4.892,1.4,7.229a3.586,3.586,0,0,1,.194.617c.287,1.73,1.449,2.473,3.044,2.808a2.082,2.082,0,0,0,2.615-1.951c.03-.82.037-1.644,0-2.464a.862.862,0,0,1,.59-.988c.774-.326,1.508-.748,2.264-1.117a2.179,2.179,0,0,0,1.313-2.122c0-1.535.008-1.559,1.491-2.02a2.35,2.35,0,0,0,1.77-1.935c.113-.593.295-1.172.437-1.759a2.069,2.069,0,0,0-2.185-2.781,1.535,1.535,0,0,1-1.544-.836c-1.5-2.39-1.361-2.373-4.254-2.274a2.753,2.753,0,0,1-2.569-1.074,9.953,9.953,0,0,0-1.133-1.157,2.051,2.051,0,0,0-2.665-.316c-.923.544-1.833,1.11-2.844,1.724,0-.653.005-1.187,0-1.72a2.063,2.063,0,0,0-.924-1.762,16.816,16.816,0,0,0-1.566-1.036,1.053,1.053,0,0,1-.628-1.195,7.252,7.252,0,0,0,.007-.931c.931-.19,1.808-.416,2.7-.538a14.619,14.619,0,0,0,3.647-1.261,8.7,8.7,0,0,0,4.436-3.778,3.929,3.929,0,0,1,3.22-2.142,3.768,3.768,0,0,0,.378-.088,3.019,3.019,0,0,0,2.609-1.7l6.089,5.363-.059.17c-.526,0-1.053,0-1.579,0a2.132,2.132,0,0,0-1.911,1.015c-.466.7-.929,1.406-1.407,2.1a2.18,2.18,0,0,0-.319,1.8c.232,1.01.489,2.014.747,3.017A2.033,2.033,0,0,0,185.748,170c1.046.263,2.1.495,3.143.774.915.245,1.681-.249,2.512-.432.357-.079.889-.275,1.061-.116.518.48,1.3.823,1.205,1.769-.064.642.029,1.3-.022,1.944a3.267,3.267,0,0,0,.878,2.616,5.023,5.023,0,0,1,.367.515c-.392.435-.775.869-1.167,1.294A104.221,104.221,0,0,1,176.1,193.687a1.219,1.219,0,0,1-1.192.188Q161.161,189.377,158.621,175.148ZM180.2,182.1a1.973,1.973,0,0,1-1.562,2.416,10.26,10.26,0,0,0-1.45.715,2.056,2.056,0,0,0-1.177,1.937q-.007,1.426-.013,2.851a.183.183,0,0,1-.024.06c-1.029-.069-1.194-.192-1.5-1.121-.163-.491-.3-.992-.495-1.471a13.84,13.84,0,0,1-1.089-6.435,1.958,1.958,0,0,0-1.3-2.108,7.618,7.618,0,0,1-2.62-2.059.824.824,0,0,1-.211-.5,6.138,6.138,0,0,1,.074-2.618c.327-.663,1.309-1.01,2.018-1.474.6-.39,1.213-.746,1.861-1.142.654.646,1.332,1.271,1.959,1.945a2.633,2.633,0,0,0,2.182.917c.733-.039,1.47.022,2.2-.019a.835.835,0,0,1,.875.489c.265.469.607.894.877,1.36a2.338,2.338,0,0,0,2.356,1.278c.234-.017.471,0,.811,0-.18.738-.318,1.391-.51,2.028a.778.778,0,0,1-.417.415c-.457.189-.941.31-1.406.482A1.9,1.9,0,0,0,180.2,182.1Z" transform="translate(-149.775 -140.481)" fill="#0e130d"/>
  </g>
</svg>
