<svg xmlns="http://www.w3.org/2000/svg" width="43.287" height="43.29" viewBox="0 0 43.287 43.29">
  <g id="Group_8115" data-name="Group 8115" transform="translate(-1201.703 -462.504)">
    <path id="Path_1879" data-name="Path 1879" d="M1233.736,495.014a.83.83,0,0,0,.02,1.16l3.59,3.48a20.722,20.722,0,0,1-13.42,5.37c-.19.01-.38.02-.58.02a20.9,20.9,0,0,1,0-41.79c.19,0,.39.01.58.02a20.889,20.889,0,0,1,15.62,34.07l-3.56-3.46a.824.824,0,0,0-1.17.02Z" fill="none" stroke="#0e130d" stroke-linecap="round" stroke-width="1.5"/>
    <path id="Path_1880" data-name="Path 1880" d="M1230.485,496.471a32.239,32.239,0,0,1-7.138.784c-11.539,0-20.894-5.867-20.894-13.106s9.355-13.106,20.894-13.106,20.893,5.868,20.893,13.106a10.206,10.206,0,0,1-3.868,7.6" fill="none" stroke="#0e130d" stroke-linecap="round" stroke-width="1.5"/>
    <path id="Path_1881" data-name="Path 1881" d="M1231.6,500.378c-2.253,2.917-5.126,4.665-8.255,4.665-7.239,0-13.107-9.355-13.107-20.894s5.868-20.894,13.107-20.894c6.184,0,11.367,6.828,12.746,16.012" fill="none" stroke="#0e130d" stroke-linecap="round" stroke-width="1.5"/>
    <line id="Line_220" data-name="Line 220" y1="7.787" transform="translate(1223.347 463.255)" fill="none" stroke="#0e130d" stroke-linecap="round" stroke-width="1.5"/>
    <line id="Line_221" data-name="Line 221" y2="7.692" transform="translate(1223.347 497.255)" fill="none" stroke="#0e130d" stroke-linecap="round" stroke-width="1.5"/>
    <line id="Line_222" data-name="Line 222" x2="9.766" transform="translate(1234.474 484.149)" fill="none" stroke="#0e130d" stroke-linecap="round" stroke-width="1.5"/>
    <line id="Line_223" data-name="Line 223" x1="9.872" transform="translate(1202.453 484.149)" fill="none" stroke="#0e130d" stroke-linecap="round" stroke-width="1.5"/>
    <circle id="Ellipse_711" data-name="Ellipse 711" cx="9.766" cy="9.766" r="9.766" transform="translate(1214.943 475.064)" fill="none" stroke="#0e130d" stroke-linecap="round" stroke-width="1.5"/>
    <path id="Path_1882" data-name="Path 1882" d="M1242.1,500.964l-1.08,1.1a.812.812,0,0,1-1.16.02l-2.51-2.43-3.59-3.48a.83.83,0,0,1-.02-1.16l1.08-1.11a.824.824,0,0,1,1.17-.02l3.56,3.46,2.53,2.45A.833.833,0,0,1,1242.1,500.964Z" fill="none" stroke="#0e130d" stroke-linecap="round" stroke-width="1.5"/>
    <path id="Path_1883" data-name="Path 1883" d="M1235.056,493.654l-.24.25-1.08,1.11-.23.24-2.73-2.65.84-.87.71-.73Z" fill="none" stroke="#0e130d" stroke-linecap="round" stroke-width="1.5"/>
    <circle id="Ellipse_712" data-name="Ellipse 712" cx="6.894" cy="6.894" r="6.894" transform="translate(1217.815 477.936)" fill="none" stroke="#0e130d" stroke-linecap="round" stroke-width="1.5"/>
  </g>
</svg>
