<svg id="Group_8038" data-name="Group 8038" xmlns="http://www.w3.org/2000/svg" width="76.605" height="77.328" viewBox="0 0 76.605 77.328">
  <circle id="Ellipse_704" data-name="Ellipse 704" cx="34.328" cy="34.328" r="34.328" transform="translate(7.949 8.672)" fill="#7dc242"/>
  <g id="Group_5737" data-name="Group 5737">
    <g id="Group_5644" data-name="Group 5644">
      <path id="Path_721" data-name="Path 721" d="M111.841,42.292c.724.013,1.449,0,2.173,0,.746,0,1.491.007,2.237,0-.746.009-1.491,0-2.237,0C113.29,42.295,112.565,42.3,111.841,42.292Z" transform="translate(-65.17 -37.416)" fill="#0e130d"/>
      <path id="Path_722" data-name="Path 722" d="M90.965,106.578c0-.489,0-.979,0-1.468s-.008-.979,0-1.468c-.011.489,0,.979,0,1.468S90.963,106.089,90.965,106.578Z" transform="translate(-55.888 -64.69)" fill="#0e130d"/>
      <path id="Path_723" data-name="Path 723" d="M110.994,101.943c.489,0,.979-.006,1.467,0-.489-.008-.978,0-1.467,0s-.979-.013-1.467,0C110.015,101.929,110.505,101.942,110.994,101.943Z" transform="translate(-64.142 -63.932)" fill="#0e130d"/>
      <path id="Path_724" data-name="Path 724" d="M126,90.232c0,.489.014.978,0,1.466.018-.488,0-.978,0-1.466,0-.51.016-1.021,0-1.53C126.019,89.211,126,89.722,126,90.232Z" transform="translate(-71.464 -58.048)" fill="#0e130d"/>
      <path id="Path_725" data-name="Path 725" d="M87.439,96.627c-.638-.011-1.276,0-1.983,0V64.83c.753-.1,1.491-.176,2.223-.292a.837.837,0,0,0,.786-.985.846.846,0,0,0-1-.77c-.171.009-.341.024-.51.045l-13.271,1.6c-1.454.175-2.909.344-4.4.52-.031-.257-.065-.444-.074-.632q-.21-4.379-.415-8.759a1.4,1.4,0,0,1,.341-1.287.907.907,0,0,0,.151-.6q.023-1.376,0-2.753c-.011-.727-.334-1.039-1.071-1.041q-4.961-.007-9.922,0c-.71,0-1.023.308-1.033,1-.013.939-.018,1.879.007,2.817a2.73,2.73,0,0,0,.214.712,2.747,2.747,0,0,1,.267.845c-.113,2.857-.255,5.713-.393,8.568-.041.849-.093,1.7-.143,2.59L46.092,67.741c-.031-.27-.056-.417-.062-.564q-.272-5.786-.538-11.573c-.022-.477-.129-.969.341-1.35.129-.1.141-.4.144-.6.014-.917.019-1.835,0-2.752a.9.9,0,0,0-1.029-1.021q-4.992-.01-9.985,0c-.7,0-1,.312-1.011,1.021-.012.939-.015,1.878.006,2.817a.945.945,0,0,0,.2.644c.365.3.31.662.292,1.041-.158,3.175-.32,6.35-.471,9.525Q33.5,75,33.033,85.066c-.06,1.274-.134,2.546-.2,3.849-.154.011-.257.022-.359.026-.933.033-1.167.259-1.213,1.172q-.057,1.151-.115,2.3c-.069,1.383-.14,2.767-.213,4.21-.72,0-1.4-.01-2.078,0a.915.915,0,0,0-1.028,1.026c-.013.789,0,1.579,0,2.368,0,1.273.2,1.468,1.489,1.468H86.984c.149,0,.3,0,.448,0,.732-.019,1.059-.33,1.069-1.052q.017-1.376,0-2.753C88.492,96.957,88.168,96.638,87.439,96.627ZM59.09,51.714h8.394V52.9H59.09Zm.489,3.062H66.95c.044.74.1,1.476.131,2.214.123,2.576.246,5.151.345,7.727.007.164-.175.469-.3.485-2.659.343-5.323.655-8.1.986C59.218,62.325,59.4,58.567,59.579,54.776Zm-.493,13.2q8.285-1,16.572-1.973,3.778-.451,7.554-.91c.121-.014.243-.018.4-.028V96.591H78.621v-.719q0-4.1,0-8.192c0-1.024-.273-1.3-1.281-1.3q-2.751,0-5.5,0c-.853,0-1.148.295-1.15,1.154q-.007,4.16,0,8.32v.729H69.3v-.679q0-4.128,0-8.256c0-.981-.28-1.266-1.242-1.268q-2.752,0-5.5,0c-.893,0-1.189.294-1.189,1.184,0,2.985,0,5.971,0,9.007H40.864v-.657q0-12.513-.011-25.024c0-.549.116-.738.712-.807C47.408,69.409,53.246,68.682,59.086,67.98ZM76.8,88.21v8.378H72.523V88.21Zm-9.32.012v8.365H63.2V88.222ZM35.772,51.7H44.14v1.2H35.772Zm.494,3.084h7.391c.206,4.366.411,8.707.622,13.157-.992.127-1.974.257-2.956.376-1.481.18-2.964.346-4.445.529a.893.893,0,0,0-.87.985.87.87,0,0,0,1.038.792c.653-.048,1.3-.142,1.992-.221V88.912h-4.4C35.18,77.532,35.722,66.184,36.267,54.789ZM33.01,90.766h6.026V96.6h-6.3C32.829,94.638,32.919,92.711,33.01,90.766Zm53.673,8.887H29.642v-1.2h57.04Z" transform="translate(-27.818 -40.787)" fill="#0e130d"/>
      <path id="Path_726" data-name="Path 726" d="M88.141,41.47c.54.018.895-.385.936-1.063a5.232,5.232,0,0,1,5.348-5.076c1.6-.01,3.2.005,4.794-.006.647,0,1.015-.35,1.011-.9s-.372-.879-1.023-.887c-.873-.011-1.747,0-2.621,0v.011c-.874,0-1.749-.029-2.621,0a7.044,7.044,0,0,0-6.68,6.795C87.279,41.032,87.6,41.451,88.141,41.47Z" transform="translate(-54.254 -33.523)" fill="#0e130d"/>
      <path id="Path_727" data-name="Path 727" d="M46.084,41.459c.593.109.987-.351,1.031-1.156a5.126,5.126,0,0,1,4.246-4.846,24.118,24.118,0,0,1,3.123-.126c.714-.021,1.09-.314,1.1-.878.012-.59-.375-.907-1.126-.915-.4,0-.81,0-1.215,0v.012c-.427,0-.854-.016-1.279,0a7.056,7.056,0,0,0-6.651,6.835C45.31,40.956,45.506,41.352,46.084,41.459Z" transform="translate(-35.596 -33.524)" fill="#0e130d"/>
      <path id="Path_728" data-name="Path 728" d="M54.624,39.077A3.926,3.926,0,0,0,50.858,42.8c-.019.68.3,1.105.844,1.127.516.021.869-.35.943-.993a2.156,2.156,0,0,1,2.3-2.073c.894-.007,1.789,0,2.683,0,.958,0,1.916.009,2.874,0,.651-.008,1.015-.342,1.015-.893s-.363-.889-1.014-.892C58.542,39.058,56.582,39.031,54.624,39.077Z" transform="translate(-38.06 -35.976)" fill="#0e130d"/>
      <path id="Path_729" data-name="Path 729" d="M60.9,42.294c-.894,0-1.789-.006-2.683,0,.894-.007,1.789,0,2.683,0,.958,0,1.916.009,2.874,0C62.813,42.3,61.855,42.294,60.9,42.294Z" transform="translate(-41.33 -37.416)" fill="#0e130d"/>
      <path id="Path_730" data-name="Path 730" d="M97.965,39.07v0c-.469,0-.938-.019-1.406,0a3.971,3.971,0,0,0-3.742,3.756c-.013.639.3,1.051.818,1.093s.9-.333.97-.96a2.166,2.166,0,0,1,2.337-2.1c.83-.006,1.662.013,2.492-.008a.877.877,0,0,0,.928-.921.867.867,0,0,0-.926-.859C98.945,39.058,98.455,39.07,97.965,39.07Z" transform="translate(-56.713 -35.982)" fill="#0e130d"/>
      <path id="Path_731" data-name="Path 731" d="M68.711,35.325c.768.012,1.535,0,2.3,0,.789,0,1.579.012,2.368,0,.637-.012,1-.372.986-.924a.876.876,0,0,0-.986-.86q-2.335-.017-4.671,0c-.645,0-1.022.349-1.023.891S68.066,35.315,68.711,35.325Z" transform="translate(-45.542 -33.522)" fill="#0e130d"/>
      <path id="Path_732" data-name="Path 732" d="M71.832,36.761c-.768,0-1.535.009-2.3,0,.768.012,1.535,0,2.3,0,.789,0,1.579.012,2.368,0C73.41,36.773,72.621,36.761,71.832,36.761Z" transform="translate(-46.36 -34.956)" fill="#0e130d"/>
      <path id="Path_733" data-name="Path 733" d="M110.023,39.954c-.005.548.365.891,1.01.9.724.013,1.449,0,2.173,0,.746,0,1.491.007,2.237,0,.69-.009,1.069-.346,1.056-.918-.013-.544-.38-.866-1.038-.87q-2.2-.013-4.41,0C110.4,39.075,110.029,39.413,110.023,39.954Z" transform="translate(-64.362 -35.981)" fill="#0e130d"/>
      <path id="Path_734" data-name="Path 734" d="M75.788,39.063c-.139,0-.278.008-.417.009s-.277-.006-.416-.008a3.661,3.661,0,0,0-.414.013.838.838,0,0,0-.844.867.814.814,0,0,0,.805.9,10.756,10.756,0,0,0,1.724,0,.811.811,0,0,0,.808-.892.831.831,0,0,0-.833-.873A3.318,3.318,0,0,0,75.788,39.063Z" transform="translate(-48.213 -35.981)" fill="#0e130d"/>
      <path id="Path_735" data-name="Path 735" d="M76.795,39.064c-.139,0-.278.008-.417.009s-.277-.006-.416-.008c.139,0,.278.008.416.008S76.656,39.066,76.795,39.064Z" transform="translate(-49.22 -35.981)" fill="#0e130d"/>
      <path id="Path_736" data-name="Path 736" d="M117.1,35.306a4.411,4.411,0,0,0,.7.006v.007c.192,0,.384.01.574,0a.892.892,0,1,0,0-1.784,8.289,8.289,0,0,0-1.276.012.814.814,0,0,0-.788.848A.837.837,0,0,0,117.1,35.306Z" transform="translate(-67.157 -33.514)" fill="#0e130d"/>
      <path id="Path_737" data-name="Path 737" d="M90.965,104.352c0,.489,0,.979,0,1.468a.864.864,0,0,0,.884.966c1.02.039,2.042.036,3.063,0a.874.874,0,0,0,.91-.948c.014-1,.022-2,0-3a.834.834,0,0,0-.883-.893q-1.531-.027-3.063,0a.846.846,0,0,0-.9.934C90.956,103.373,90.965,103.863,90.965,104.352Zm1.846-.582H94v1.2H92.811Z" transform="translate(-55.888 -63.932)" fill="#0e130d"/>
      <path id="Path_738" data-name="Path 738" d="M108.681,106.793c1,.03,2,.027,3,0a.88.88,0,0,0,.928-.935c.024-1,.028-2,0-3a.861.861,0,0,0-.934-.914c-.489-.008-.978,0-1.467,0s-.979-.014-1.467,0c-.673.022-.967.312-.978.987q-.022,1.436,0,2.871A.871.871,0,0,0,108.681,106.793Zm.886-3.006h1.213v1.168h-1.213Z" transform="translate(-63.35 -63.932)" fill="#0e130d"/>
      <path id="Path_739" data-name="Path 739" d="M60.258,100.964q4.887.011,9.773,0c.724,0,1.154-.37,1.139-.926-.015-.532-.427-.858-1.123-.86-1.618-.007-3.237,0-4.855,0-1.64,0-3.279,0-4.918,0-.741,0-1.1.283-1.122.845C59.128,100.6,59.529,100.963,60.258,100.964Z" transform="translate(-41.747 -62.703)" fill="#0e130d"/>
      <path id="Path_740" data-name="Path 740" d="M60.266,106.5q4.887.01,9.773,0c.721,0,1.151-.377,1.13-.934-.021-.532-.429-.85-1.131-.853-1.618-.006-3.236,0-4.855,0-1.639,0-3.279,0-4.918,0-.735,0-1.1.29-1.115.853C59.133,106.141,59.534,106.5,60.266,106.5Z" transform="translate(-41.746 -65.163)" fill="#0e130d"/>
      <path id="Path_741" data-name="Path 741" d="M70.931,104.71c-1.618-.006-3.236,0-4.855,0-1.639,0-3.279,0-4.918,0,1.639-.007,3.279,0,4.918,0C67.695,104.708,69.313,104.7,70.931,104.71Z" transform="translate(-42.639 -65.163)" fill="#0e130d"/>
      <path id="Path_742" data-name="Path 742" d="M60.272,112.029q4.887.01,9.773,0c.718,0,1.149-.382,1.124-.94-.024-.532-.43-.845-1.136-.847-1.618-.006-3.236,0-4.854,0-1.64,0-3.279,0-4.919,0-.731,0-1.1.3-1.109.858S59.536,112.028,60.272,112.029Z" transform="translate(-41.747 -67.622)" fill="#0e130d"/>
      <path id="Path_743" data-name="Path 743" d="M70.921,110.242c-1.618-.006-3.236,0-4.854,0-1.64,0-3.279,0-4.918,0,1.64-.006,3.279,0,4.918,0C67.685,110.24,69.3,110.236,70.921,110.242Z" transform="translate(-42.635 -67.622)" fill="#0e130d"/>
      <path id="Path_744" data-name="Path 744" d="M123.7,91.869a.868.868,0,0,0,.868-.916c.018-.488,0-.978,0-1.466,0-.51.016-1.021,0-1.53a.874.874,0,0,0-.912-.93.849.849,0,0,0-.867.911q-.028,1.5,0,3A.878.878,0,0,0,123.7,91.869Z" transform="translate(-70.029 -57.302)" fill="#0e130d"/>
    </g>
  </g>
</svg>
